<?xml version="1.0" encoding="utf-8"?>
<!-- Generator: Adobe Illustrator 21.0.2, SVG Export Plug-In . SVG Version: 6.00 Build 0)  -->
<svg version="1.1" id="Layer_1" xmlns="http://www.w3.org/2000/svg" xmlns:xlink="http://www.w3.org/1999/xlink" x="0px" y="0px"
	 width="28.621px" height="30px" viewBox="0 0 28.621 30" style="enable-background:new 0 0 28.621 30;" xml:space="preserve">
<style type="text/css">
	.st0{fill-rule:evenodd;clip-rule:evenodd;fill:#F05C61;}
</style>
<path class="st0" d="M27.402,21.11c-0.145-0.348-0.29-0.726-0.436-1.045c-0.232-0.522-0.464-1.016-0.668-1.481l-0.029-0.029
	c-2.003-4.354-4.151-8.767-6.415-13.121l-0.087-0.174c-0.232-0.436-0.465-0.9-0.697-1.364c-0.29-0.522-0.581-1.074-1.045-1.597
	c-0.929-1.161-2.264-1.8-3.687-1.8c-1.452,0-2.758,0.639-3.716,1.742c-0.435,0.523-0.755,1.074-1.045,1.597
	C9.346,4.303,9.114,4.767,8.882,5.203L8.795,5.377c-2.235,4.354-4.413,8.767-6.416,13.121L2.35,18.556
	c-0.203,0.465-0.435,0.958-0.668,1.481c-0.145,0.319-0.29,0.668-0.435,1.045c-0.378,1.074-0.493,2.09-0.348,3.135
	c0.319,2.177,1.771,4.006,3.774,4.819C5.427,29.355,6.211,29.5,7.024,29.5c0.232,0,0.523-0.029,0.755-0.058
	c0.958-0.116,1.945-0.435,2.903-0.987c1.19-0.668,2.322-1.625,3.6-3.019c1.277,1.393,2.438,2.351,3.6,3.019
	c0.958,0.552,1.945,0.871,2.903,0.987c0.232,0.029,0.523,0.058,0.755,0.058c0.813,0,1.626-0.145,2.351-0.464
	c2.032-0.813,3.455-2.671,3.774-4.819C27.896,23.201,27.78,22.185,27.402,21.11z M14.31,22.62c-1.568-1.974-2.584-3.832-2.932-5.399
	c-0.145-0.668-0.174-1.248-0.087-1.771c0.058-0.464,0.232-0.871,0.465-1.219c0.551-0.784,1.48-1.277,2.554-1.277
	c1.074,0,2.032,0.464,2.554,1.277c0.232,0.348,0.407,0.755,0.465,1.219c0.087,0.522,0.058,1.132-0.087,1.771
	C16.894,18.759,15.878,20.617,14.31,22.62z M25.893,23.984c-0.203,1.51-1.219,2.816-2.642,3.396c-0.697,0.29-1.452,0.378-2.206,0.29
	c-0.726-0.087-1.452-0.319-2.206-0.755c-1.045-0.581-2.09-1.481-3.309-2.816c1.916-2.351,3.077-4.499,3.513-6.415
	c0.203-0.9,0.232-1.713,0.145-2.468c-0.116-0.726-0.378-1.393-0.784-1.974c-0.9-1.306-2.409-2.061-4.093-2.061
	c-1.684,0-3.193,0.784-4.093,2.061c-0.406,0.581-0.668,1.248-0.784,1.974c-0.116,0.755-0.087,1.597,0.145,2.468
	c0.435,1.916,1.626,4.093,3.513,6.444c-1.19,1.335-2.264,2.235-3.309,2.816c-0.755,0.435-1.481,0.668-2.206,0.755
	c-0.784,0.087-1.539-0.029-2.206-0.29c-1.422-0.581-2.438-1.887-2.642-3.396c-0.087-0.726-0.029-1.452,0.261-2.264
	c0.087-0.29,0.232-0.581,0.377-0.929c0.203-0.464,0.436-0.958,0.668-1.451l0.029-0.058c2.003-4.325,4.151-8.738,6.386-13.034
	l0.087-0.174c0.232-0.436,0.464-0.9,0.697-1.335c0.232-0.465,0.493-0.9,0.813-1.277c0.61-0.697,1.422-1.074,2.322-1.074
	c0.9,0,1.713,0.378,2.322,1.074c0.319,0.377,0.581,0.813,0.813,1.277c0.232,0.435,0.464,0.9,0.697,1.335l0.087,0.174
	c2.206,4.325,4.354,8.738,6.357,13.063v0.029c0.232,0.464,0.435,0.987,0.668,1.451c0.145,0.348,0.29,0.639,0.377,0.929
	C25.922,22.504,26.009,23.23,25.893,23.984z"/>
</svg>
