<?xml version="1.0" encoding="iso-8859-1"?>
<!-- Generator: Adobe Illustrator 21.0.2, SVG Export Plug-In . SVG Version: 6.00 Build 0)  -->
<svg version="1.1" id="Layer_1" xmlns="http://www.w3.org/2000/svg" xmlns:xlink="http://www.w3.org/1999/xlink" x="0px" y="0px"
	 width="96px" height="96px" viewBox="159 349 96 96" style="enable-background:new 159 349 96 96;" xml:space="preserve">
<g>
	<path style="fill:#FFFFFF;" d="M214.498,419.625h-16.97c-0.754,0-1.411,0.284-1.979,0.847c-0.564,0.568-0.848,1.225-0.848,1.98
		v16.97c0,0.754,0.284,1.416,0.848,1.979c0.567,0.564,1.225,0.848,1.979,0.848h16.97c0.755,0,1.416-0.28,1.98-0.848
		c0.567-0.563,0.847-1.225,0.847-1.979v-16.97c0-0.755-0.28-1.411-0.847-1.98C215.913,419.904,215.253,419.625,214.498,419.625
		L214.498,419.625z M214.498,419.625"/>
	<path style="fill:#FFFFFF;" d="M236.77,368.828c-1.933-3.563-4.428-6.564-7.497-9.018c-3.063-2.448-6.504-4.406-10.321-5.868
		c-3.818-1.461-7.611-2.19-11.381-2.19c-14.331,0-25.263,6.267-32.806,18.805c-0.376,0.614-0.508,1.276-0.389,1.983
		c0.118,0.703,0.483,1.292,1.098,1.767l11.593,8.834c0.615,0.378,1.204,0.568,1.767,0.568c0.852,0,1.581-0.378,2.196-1.131
		c3.39-4.241,5.915-6.953,7.563-8.131c2.025-1.369,4.572-2.051,7.636-2.051c2.873,0,5.407,0.754,7.602,2.263
		c2.191,1.509,3.285,3.25,3.285,5.233c0,2.212-0.589,4.005-1.767,5.373c-1.178,1.365-3.158,2.687-5.941,3.958
		c-3.674,1.648-7.047,4.208-10.106,7.669c-3.068,3.466-4.598,7.153-4.598,11.068v3.183c0,0.894,0.246,1.779,0.742,2.648
		c0.496,0.873,1.098,1.309,1.805,1.309h16.967c0.754,0,1.415-0.364,1.979-1.097c0.567-0.729,0.852-1.496,0.852-2.297
		c0-1.174,0.649-2.754,1.941-4.737c1.296-1.979,2.911-3.508,4.843-4.593c1.839-1.038,3.275-1.873,4.313-2.513
		c1.038-0.636,2.394-1.661,4.068-3.072c1.671-1.415,2.967-2.817,3.887-4.208c0.919-1.39,1.745-3.195,2.474-5.411
		c0.733-2.216,1.097-4.597,1.097-7.14C239.667,376.121,238.702,372.383,236.77,368.828L236.77,368.828z M236.77,368.828"/>
</g>
</svg>
