<?xml version="1.0" encoding="iso-8859-1"?>
<!-- Generator: Adobe Illustrator 21.0.2, SVG Export Plug-In . SVG Version: 6.00 Build 0)  -->
<svg version="1.1" id="Layer_1" xmlns="http://www.w3.org/2000/svg" xmlns:xlink="http://www.w3.org/1999/xlink" x="0px" y="0px"
	 width="48px" height="48px" viewBox="183 373 48 48" style="enable-background:new 183 373 48 48;" xml:space="preserve">
<g>
	<path style="fill:#FFFFFF;" d="M194.929,392.025c-0.194,0-0.366,0.135-0.414,0.321l-8.766,21.874v0.761
		c0,0.564-0.038,0.766,0.429,0.766h34.251c0.886,0,1.663-0.594,1.876-1.386l7.824-21.571v-0.766H194.929z M194.929,392.025"/>
	<path style="fill:#FFFFFF;" d="M193.959,390.497h31.58v-4.798c0-1.155-0.937-2.088-2.088-2.088h-18.944l-3.826-5.358h-14.37
		c-1.155,0-2.093,0.937-2.093,2.092v31.98l7.869-20.442C192.295,391.091,193.077,390.497,193.959,390.497L193.959,390.497z
		 M193.959,390.497"/>
</g>
</svg>
