<?xml version="1.0" encoding="utf-8"?>
<!-- Generator: Adobe Illustrator 21.0.2, SVG Export Plug-In . SVG Version: 6.00 Build 0)  -->
<svg version="1.1" id="Layer_1" xmlns="http://www.w3.org/2000/svg" xmlns:xlink="http://www.w3.org/1999/xlink" x="0px" y="0px"
	 width="100px" height="30px" viewBox="0 0 100 30" style="enable-background:new 0 0 100 30;" xml:space="preserve">
<style type="text/css">
	.st0{fill:#31459B;}
</style>
<g>
	<path class="st0" d="M11.335,13.841h6.833v7.506c-0.997,0.848-2.14,1.459-3.429,1.833c-1.289,0.374-2.581,0.561-3.878,0.561
		c-1.346,0-2.556-0.204-3.627-0.611c-1.073-0.407-1.983-0.988-2.73-1.745c-0.749-0.757-1.318-1.675-1.709-2.756
		s-0.585-2.294-0.585-3.641c0-1.263,0.211-2.431,0.635-3.504s1.019-1.995,1.783-2.768c0.765-0.773,1.675-1.375,2.732-1.808
		C8.414,6.477,9.582,6.26,10.861,6.26c1.38,0,2.673,0.229,3.878,0.686c1.205,0.458,2.215,1.219,3.03,2.282l-2.867,2.893
		c-0.515-0.515-1.068-0.94-1.659-1.272c-0.59-0.332-1.275-0.498-2.057-0.498c-0.715,0-1.346,0.125-1.895,0.374
		c-0.549,0.249-1.01,0.585-1.384,1.01c-0.373,0.424-0.661,0.922-0.86,1.496c-0.199,0.574-0.299,1.185-0.299,1.834
		c0,0.714,0.109,1.359,0.325,1.932c0.216,0.574,0.515,1.064,0.898,1.471c0.382,0.408,0.847,0.723,1.396,0.948
		c0.549,0.224,1.164,0.337,1.846,0.337c0.548,0,1.071-0.066,1.571-0.2c0.498-0.132,0.98-0.365,1.446-0.698v-1.596h-2.893V13.841z"/>
	<path class="st0" d="M20.886,6.709h11.97v3.815H25.3v2.568h6.209v3.591H25.3v2.843h8.08v3.815H20.886V6.709z"/>
	<path class="st0" d="M35.673,6.709h4.016l6.382,9.276V6.709h4.365v16.633H46.67l-6.632-9.551v9.551h-4.365V6.709z"/>
	<path class="st0" d="M53.428,6.709h4.414v16.633h-4.414V6.709z"/>
	<path class="st0" d="M61.257,6.709h4.215l4.04,7.256l3.963-7.256h4.239l0.773,16.633h-4.463l-0.4-9.75l-2.918,5.685h-2.419
		l-3.241-5.685l-0.325,9.75h-4.239L61.257,6.709z"/>
	<path class="st0" d="M89.139,23.74c-1.248,0-2.399-0.22-3.454-0.661c-1.055-0.44-1.971-1.047-2.744-1.82
		c-0.773-0.773-1.376-1.696-1.808-2.768c-0.432-1.073-0.647-2.24-0.647-3.504c0-1.263,0.215-2.431,0.647-3.504
		s1.035-1.995,1.808-2.768c0.773-0.773,1.688-1.375,2.744-1.808C86.74,6.477,87.89,6.26,89.139,6.26
		c1.246,0,2.401,0.217,3.466,0.648c1.063,0.433,1.979,1.035,2.742,1.808c0.765,0.773,1.363,1.696,1.795,2.768
		s0.649,2.24,0.649,3.504c0,1.263-0.217,2.431-0.649,3.504c-0.432,1.073-1.03,1.995-1.795,2.768c-0.763,0.773-1.678,1.38-2.742,1.82
		C91.539,23.52,90.385,23.74,89.139,23.74z M89.139,19.602c0.647,0,1.226-0.121,1.733-0.362c0.507-0.24,0.936-0.569,1.285-0.985
		c0.349-0.415,0.615-0.905,0.798-1.47s0.274-1.164,0.274-1.796c0-0.631-0.091-1.23-0.274-1.795s-0.448-1.056-0.798-1.471
		c-0.349-0.416-0.777-0.744-1.285-0.985c-0.507-0.24-1.086-0.362-1.733-0.362c-0.649,0-1.226,0.122-1.733,0.362
		c-0.507,0.241-0.936,0.569-1.285,0.985c-0.349,0.415-0.615,0.906-0.798,1.471c-0.185,0.565-0.276,1.164-0.276,1.795
		c0,0.632,0.091,1.231,0.276,1.796c0.183,0.565,0.448,1.055,0.798,1.47c0.349,0.416,0.777,0.745,1.285,0.985
		C87.913,19.481,88.489,19.602,89.139,19.602z"/>
</g>
</svg>
