<?xml version="1.0" encoding="utf-8"?>
<!-- Generator: Adobe Illustrator 21.0.2, SVG Export Plug-In . SVG Version: 6.00 Build 0)  -->
<svg version="1.1" id="Layer_1" xmlns="http://www.w3.org/2000/svg" xmlns:xlink="http://www.w3.org/1999/xlink" x="0px" y="0px"
	 width="148px" height="300px" viewBox="0 0 148 300" style="enable-background:new 0 0 148 300;" xml:space="preserve">
<style type="text/css">
	.st0{fill:#FFFFFF;}
	.st1{fill:#3D6E8E;}
	.st2{fill:#394FA1;}
	.st3{font-family:'MyriadPro-Bold';}
	.st4{font-size:7.3078px;}
	.st5{fill:#595A5A;}
	.st6{font-family:'MyriadPro-Regular';}
	.st7{font-size:8.5617px;}
	.st8{fill:#221F1F;}
	.st9{fill:url(#SVGID_1_);}
	.st10{fill:url(#SVGID_2_);}
	.st11{fill:url(#SVGID_3_);}
	.st12{fill:url(#SVGID_4_);}
	.st13{fill:url(#SVGID_5_);}
	.st14{fill:url(#SVGID_6_);}
	.st15{fill:#CE5928;}
	.st16{fill:#F1F1F2;}
	.st17{fill:#14506A;}
	.st18{fill:#E8E3E3;}
	.st19{fill:#231F20;}
	.st20{enable-background:new    ;}
	.st21{fill-rule:evenodd;clip-rule:evenodd;}
</style>
<path class="st0" d="M124.6,299.4H22.2c-11.7,0-21.3-9.6-21.3-21.3V21.9c0-11.7,9.6-21.3,21.3-21.3h102.3c11.7,0,21.3,9.6,21.3,21.3
	v256.2C145.9,289.8,136.3,299.4,124.6,299.4z"/>
<g>
	<path class="st1" d="M124.6,300H22.2c-12.1,0-21.9-9.8-21.9-21.9V21.9C0.3,9.8,10.1,0,22.2,0h102.3c12.1,0,21.9,9.8,21.9,21.9
		v256.2C146.5,290.2,136.6,300,124.6,300z M22.2,1.2c-11.4,0-20.7,9.3-20.7,20.7v256.2c0,11.4,9.3,20.7,20.7,20.7h102.3
		c11.4,0,20.7-9.3,20.7-20.7V21.9c0-11.4-9.3-20.7-20.7-20.7C124.6,1.2,22.2,1.2,22.2,1.2z"/>
	<path class="st1" d="M147,46.9h-0.3c-0.4,0-0.7-0.3-0.7-0.7v-9.7c0-0.4,0.3-0.7,0.7-0.7h0.3c0.4,0,0.7,0.3,0.7,0.7v9.7
		C147.7,46.6,147.4,46.9,147,46.9z"/>
	<path class="st1" d="M147,96h-0.3c-0.4,0-0.7-0.3-0.7-0.7v-9.7c0-0.4,0.3-0.7,0.7-0.7h0.3c0.4,0,0.7,0.3,0.7,0.7v9.7
		C147.7,95.7,147.4,96,147,96z"/>
	<path class="st1" d="M147,71.5h-0.3c-0.4,0-0.7-0.3-0.7-0.7V61c0-0.4,0.3-0.7,0.7-0.7h0.3c0.4,0,0.7,0.3,0.7,0.7v9.7
		C147.7,71.1,147.4,71.5,147,71.5z"/>
</g>
<rect x="7.4" y="24.7" class="st2" width="131.9" height="16.6"/>
<g>
	<rect x="11.6" y="29.1" class="st0" width="10.2" height="1.3"/>
	<rect x="11.6" y="32.4" class="st0" width="10.2" height="1.3"/>
	<rect x="11.6" y="35.6" class="st0" width="10.2" height="1.3"/>
</g>
<text transform="matrix(1 0 0 1 29.5026 35.1863)" class="st0 st3 st4">City Watch</text>
<path class="st1" d="M117.1,6.6c-2.6,0-4.7,2.1-4.7,4.7c0,2.6,2.1,4.7,4.7,4.7c2.6,0,4.7-2.1,4.7-4.7C121.8,8.7,119.7,6.6,117.1,6.6
	z M117.1,12.9c-0.9,0-1.6-0.7-1.6-1.6s0.7-1.6,1.6-1.6c0.9,0,1.6,0.7,1.6,1.6S118,12.9,117.1,12.9z"/>
<g>
	<path class="st1" d="M29.7,7c2.3,0,4.2,1.9,4.2,4.2s-1.9,4.2-4.2,4.2s-4.2-1.9-4.2-4.2S27.3,7,29.7,7 M29.7,6.6
		c-2.6,0-4.7,2.1-4.7,4.7c0,2.6,2.1,4.7,4.7,4.7s4.7-2.1,4.7-4.7C34.4,8.7,32.3,6.6,29.7,6.6L29.7,6.6z"/>
	<circle class="st1" cx="29.7" cy="11.3" r="1.6"/>
</g>
<circle class="st1" cx="107.7" cy="295.1" r="1.5"/>
<circle class="st1" cx="39.1" cy="295.1" r="1.5"/>
<path class="st1" d="M88.5,14.5H58.3c-1.7,0-3.1-1.4-3.1-3.1v-0.2c0-1.7,1.4-3.1,3.1-3.1h30.2c1.7,0,3.1,1.4,3.1,3.1v0.2
	C91.6,13.1,90.2,14.5,88.5,14.5z"/>
<path class="st1" d="M77.7,295.6h-8.6c-1.9,0-3.5-1.6-3.5-3.5v-8.6c0-1.9,1.6-3.5,3.5-3.5h8.6c1.9,0,3.5,1.6,3.5,3.5v8.6
	C81.2,294.1,79.6,295.6,77.7,295.6z"/>
<text transform="matrix(1 0 0 1 50.7828 214.718)" class="st5 st6 st7">Powered by</text>
<g>
	<path class="st8" d="M65.8,231.2c-0.6,0-1.1-0.1-1.6-0.3c-0.5-0.2-0.9-0.5-1.3-0.9s-0.7-0.8-0.9-1.3c-0.2-0.5-0.3-1-0.3-1.6
		c0-0.6,0.1-1.1,0.3-1.6s0.5-0.9,0.9-1.3s0.8-0.7,1.3-0.9c0.5-0.2,1-0.3,1.6-0.3s1.1,0.1,1.6,0.3c0.5,0.2,0.9,0.5,1.3,0.9
		s0.7,0.8,0.9,1.3c0.2,0.5,0.3,1,0.3,1.6c0,0.6-0.1,1.1-0.3,1.6s-0.5,0.9-0.9,1.3c-0.4,0.4-0.8,0.7-1.3,0.9
		C66.9,231.1,66.3,231.2,65.8,231.2z M65.8,230.5c0.5,0,0.9-0.1,1.3-0.3c0.4-0.2,0.7-0.4,1-0.7c0.3-0.3,0.5-0.7,0.7-1.1
		c0.2-0.4,0.2-0.9,0.2-1.3c0-0.5-0.1-0.9-0.3-1.3c-0.2-0.4-0.4-0.8-0.7-1.1c-0.3-0.3-0.6-0.6-1-0.7s-0.8-0.3-1.3-0.3
		c-0.5,0-0.9,0.1-1.3,0.3s-0.7,0.4-1,0.7c-0.3,0.3-0.5,0.7-0.7,1.1c-0.2,0.4-0.2,0.9-0.2,1.3c0,0.5,0.1,0.9,0.3,1.3
		c0.2,0.4,0.4,0.8,0.7,1.1c0.3,0.3,0.6,0.6,1,0.7C64.9,230.4,65.3,230.5,65.8,230.5z"/>
	<path class="st8" d="M70.6,224.8c0-0.2,0-0.4,0-0.6c0-0.2,0-0.3,0-0.4s0-0.2,0-0.4c0-0.1,0-0.2,0-0.4h0.7c0,0.1,0,0.3,0,0.4
		c0,0.1,0,0.2,0,0.4c0,0.1,0,0.3,0,0.4c0,0.2,0,0.4,0,0.6c0.1-0.2,0.2-0.4,0.4-0.6c0.2-0.2,0.4-0.4,0.6-0.6c0.2-0.2,0.5-0.3,0.9-0.5
		c0.3-0.1,0.7-0.2,1.1-0.2c0.3,0,0.5,0,0.7,0.1l-0.2,0.8c-0.1,0-0.2-0.1-0.3-0.1c-0.1,0-0.2,0-0.3,0c-0.4,0-0.8,0.1-1.1,0.3
		c-0.3,0.2-0.6,0.4-0.9,0.7c-0.2,0.3-0.4,0.7-0.6,1.1c-0.1,0.4-0.2,0.8-0.2,1.2v4.1h-0.8L70.6,224.8L70.6,224.8z"/>
	<polygon class="st8" points="57.8,221.1 57.4,221.1 51.6,224.5 45.9,221.1 45.8,221.1 45.5,221.1 45.5,230.4 48.5,232.2 
		48.5,227.2 51.6,229.7 54.8,227.2 54.8,232.2 57.8,230.4 57.8,221.3 	"/>
	
		<linearGradient id="SVGID_1_" gradientUnits="userSpaceOnUse" x1="51.614" y1="69.3455" x2="60.918" y2="69.3455" gradientTransform="matrix(1 0 0 -1 0 300)">
		<stop  offset="0" style="stop-color:#B74724"/>
		<stop  offset="1" style="stop-color:#F16222"/>
	</linearGradient>
	<polygon class="st9" points="57.5,230.3 55.1,231.7 55.1,226.7 51.6,229.4 51.6,232.7 55.1,234.4 55.4,234.6 60.9,231.5 	"/>
	
		<linearGradient id="SVGID_2_" gradientUnits="userSpaceOnUse" x1="51.614" y1="79.074" x2="60.918" y2="79.074" gradientTransform="matrix(1 0 0 -1 0 300)">
		<stop  offset="0" style="stop-color:#B74724"/>
		<stop  offset="1" style="stop-color:#F16222"/>
	</linearGradient>
	<polygon class="st10" points="51.6,219.9 57,217 60.9,219.3 51.6,224.9 	"/>
	
		<linearGradient id="SVGID_3_" gradientUnits="userSpaceOnUse" x1="59.206" y1="68.539" x2="59.206" y2="80.702" gradientTransform="matrix(1 0 0 -1 0 300)">
		<stop  offset="0" style="stop-color:#B74724"/>
		<stop  offset="1" style="stop-color:#F16222"/>
	</linearGradient>
	<polygon class="st11" points="57.5,230.3 60.9,231.5 60.9,219.3 57.5,221.3 	"/>
	
		<linearGradient id="SVGID_4_" gradientUnits="userSpaceOnUse" x1="644.316" y1="69.3455" x2="635.012" y2="69.3455" gradientTransform="matrix(-1 0 0 -1 686.626 300)">
		<stop  offset="0" style="stop-color:#B74724"/>
		<stop  offset="0.995" style="stop-color:#F16222"/>
	</linearGradient>
	<polygon class="st12" points="45.7,230.3 48.2,231.7 48.2,226.7 51.6,229.4 51.6,232.7 48.2,234.4 47.8,234.6 42.3,231.5 	"/>
	
		<linearGradient id="SVGID_5_" gradientUnits="userSpaceOnUse" x1="46.962" y1="75.146" x2="46.962" y2="83.002" gradientTransform="matrix(1 0 0 -1 0 300)">
		<stop  offset="0" style="stop-color:#F16222"/>
		<stop  offset="0.8778" style="stop-color:#B74724"/>
	</linearGradient>
	<polygon class="st13" points="51.6,219.9 46.2,217 42.3,219.3 51.6,224.9 	"/>
	
		<linearGradient id="SVGID_6_" gradientUnits="userSpaceOnUse" x1="44.022" y1="68.539" x2="44.022" y2="80.702" gradientTransform="matrix(1 0 0 -1 0 300)">
		<stop  offset="0" style="stop-color:#F16222"/>
		<stop  offset="1" style="stop-color:#B74724"/>
	</linearGradient>
	<polygon class="st14" points="45.7,230.3 42.3,231.5 42.3,219.3 45.7,221.3 	"/>
	<path class="st8" d="M82,229.8c-0.3,0.4-0.8,0.8-1.4,1c-0.6,0.2-1.2,0.4-1.8,0.4c-0.6,0-1.1-0.1-1.6-0.3c-0.5-0.2-0.9-0.5-1.3-0.8
		s-0.6-0.8-0.8-1.3c-0.2-0.5-0.3-1.1-0.3-1.7c0-0.6,0.1-1.1,0.3-1.6c0.2-0.5,0.4-0.9,0.8-1.3c0.3-0.4,0.7-0.7,1.2-0.9
		c0.5-0.2,1-0.3,1.5-0.3c0.5,0,1,0.1,1.5,0.3c0.5,0.2,0.9,0.5,1.2,0.8c0.3,0.4,0.6,0.8,0.8,1.3c0.2,0.5,0.3,1.2,0.3,1.9h-6.6
		c0,0.4,0.1,0.9,0.3,1.2c0.2,0.4,0.4,0.7,0.6,1c0.3,0.3,0.6,0.5,1,0.7c0.4,0.2,0.8,0.2,1.3,0.2c0.2,0,0.5,0,0.7-0.1
		c0.3-0.1,0.5-0.1,0.7-0.2c0.2-0.1,0.5-0.2,0.7-0.4c0.2-0.1,0.4-0.3,0.5-0.5L82,229.8z M81.5,226.6c-0.1-1-0.4-1.7-0.9-2.2
		c-0.5-0.5-1.2-0.7-2-0.7c-0.4,0-0.8,0.1-1.1,0.2c-0.3,0.2-0.6,0.4-0.9,0.6c-0.2,0.3-0.4,0.6-0.6,0.9c-0.2,0.4-0.2,0.7-0.3,1.1
		L81.5,226.6L81.5,226.6z"/>
	<path class="st15" d="M83.4,223.7h-1.6V223h1.6v-2.6h0.8v2.6h2.6v0.7h-2.6v4.6c0,0.5,0,0.9,0.1,1.1c0.1,0.3,0.2,0.5,0.3,0.6
		c0.1,0.1,0.3,0.2,0.5,0.3c0.2,0,0.4,0.1,0.6,0.1c0.3,0,0.5-0.1,0.7-0.2c0.2-0.1,0.4-0.3,0.6-0.5l0.5,0.5c-0.2,0.3-0.5,0.5-0.8,0.7
		c-0.3,0.2-0.7,0.2-1.2,0.2c-0.3,0-0.6,0-0.9-0.1c-0.3-0.1-0.5-0.2-0.7-0.4c-0.2-0.2-0.3-0.5-0.4-0.8c-0.1-0.3-0.2-0.8-0.2-1.3
		L83.4,223.7L83.4,223.7z"/>
	<path class="st15" d="M88,223.7h-1.6V223H88v-2.6h0.8v2.6h2.6v0.7h-2.6v4.6c0,0.5,0,0.9,0.1,1.1c0.1,0.3,0.2,0.5,0.3,0.6
		c0.1,0.1,0.3,0.2,0.5,0.3c0.2,0,0.4,0.1,0.6,0.1c0.3,0,0.5-0.1,0.7-0.2s0.4-0.3,0.6-0.5l0.5,0.5c-0.2,0.3-0.5,0.5-0.8,0.7
		c-0.3,0.2-0.7,0.2-1.2,0.2c-0.3,0-0.6,0-0.9-0.1c-0.3-0.1-0.5-0.2-0.7-0.4c-0.2-0.2-0.3-0.5-0.4-0.8c-0.1-0.3-0.2-0.8-0.2-1.3
		L88,223.7L88,223.7z"/>
	<path class="st15" d="M101.2,229.8c-0.3,0.4-0.8,0.7-1.3,1c-0.5,0.3-1.1,0.4-1.8,0.4c-0.6,0-1.1-0.1-1.6-0.3s-0.9-0.5-1.2-0.9
		c-0.3-0.4-0.6-0.8-0.8-1.3c-0.2-0.5-0.3-1-0.3-1.6s0.1-1.1,0.3-1.6c0.2-0.5,0.5-0.9,0.8-1.3c0.3-0.4,0.8-0.7,1.2-0.9
		c0.5-0.2,1-0.3,1.6-0.3c0.7,0,1.3,0.1,1.8,0.4c0.5,0.2,0.9,0.6,1.2,1l-0.6,0.4c-0.3-0.3-0.6-0.6-1-0.8c-0.4-0.2-0.9-0.3-1.4-0.3
		c-0.5,0-0.9,0.1-1.2,0.3c-0.4,0.2-0.7,0.4-1,0.7c-0.3,0.3-0.5,0.7-0.6,1.1c-0.2,0.4-0.2,0.9-0.2,1.3c0,0.5,0.1,0.9,0.2,1.3
		c0.2,0.4,0.4,0.8,0.7,1.1s0.6,0.5,1,0.7c0.4,0.2,0.8,0.3,1.2,0.3c0.6,0,1.1-0.1,1.5-0.3c0.4-0.2,0.8-0.5,1-0.8L101.2,229.8z"/>
	<g>
		<rect x="92.7" y="223" class="st15" width="0.8" height="8.2"/>
		<g>
			<rect x="92.8" y="220.4" class="st15" width="0.8" height="0.8"/>
			<polygon class="st8" points="92.5,220.3 92.8,220.4 92.8,221.2 92.5,221.1 			"/>
			<polyline class="st8" points="93.6,220.4 93.3,220.3 92.5,220.3 92.8,220.4 			"/>
		</g>
	</g>
</g>
<rect x="15.1" y="126.2" class="st16" width="113.4" height="17.2"/>
<rect x="15.1" y="145.4" class="st16" width="113.4" height="17.2"/>
<rect x="15.1" y="106.9" class="st16" width="113.4" height="17.2"/>
<g>
	<circle class="st17" cx="122.2" cy="247.7" r="10.2"/>
	<g>
		<path class="st0" d="M122.6,243.9v3.4h3.3v0.9h-3.3v3.4h-0.9v-3.4h-3.3v-0.9h3.3v-3.4H122.6z"/>
	</g>
</g>
<rect x="7.6" y="41.5" class="st18" width="116.1" height="202.5"/>
<g>
	<path class="st0" d="M21,39.6v1.5c0,1.6-1.4,3-3,3c-1.5,0-2.4-0.8-3.1-2c-1.6-2.7-2.7-3.9-2.3-4.3c0.4-0.4,1.5,0.5,2.4,1.4v-4.5
		c0-0.3,0.3-0.6,0.6-0.6c0.3,0,0.6,0.3,0.6,0.6v4.2h0.4v-1.4c0-0.3,0.3-0.6,0.6-0.6c0.3,0,0.6,0.3,0.6,0.6v1h0.4v-0.6
		c0-0.3,0.3-0.6,0.6-0.6c0.3,0,0.6,0.3,0.6,0.6v1h0.4v-0.2c0-0.3,0.3-0.6,0.6-0.6s0.6,0.3,0.6,0.6C21,38.7,21,39.6,21,39.6z"/>
	<path d="M20.4,37.7c-0.2,0-0.4,0.1-0.6,0.2c0-0.6-0.4-1-1-1c-0.2,0-0.5,0.1-0.7,0.2c-0.2-0.4-0.5-0.6-0.9-0.6
		c-0.2,0-0.4,0.1-0.6,0.2v-2c0-0.6-0.4-1-1-1c-0.6,0-1,0.4-1,1v3.6c-0.8-0.7-1.7-1.3-2.3-0.7c-0.8,0.8,0.9,2.4,2.2,4.7
		c0.9,1.7,2.2,2.3,3.5,2.3c1.9,0,3.4-1.5,3.4-3.4v-2.4C21.4,38.2,21,37.7,20.4,37.7L20.4,37.7z M21,39.6v1.5c0,1.6-1.4,3-3,3
		c-1.5,0-2.4-0.8-3.1-2c-1.6-2.7-2.7-3.9-2.3-4.3c0.4-0.4,1.5,0.5,2.4,1.4v-4.5c0-0.3,0.3-0.6,0.6-0.6c0.3,0,0.6,0.3,0.6,0.6v4.2
		h0.4v-1.4c0-0.3,0.3-0.6,0.6-0.6c0.3,0,0.6,0.3,0.6,0.6v1h0.4v-0.6c0-0.3,0.3-0.6,0.6-0.6c0.3,0,0.6,0.3,0.6,0.6v1h0.4v-0.2
		c0-0.3,0.3-0.6,0.6-0.6s0.6,0.3,0.6,0.6C21,38.7,21,39.6,21,39.6z"/>
</g>
<g>
	<path class="st1" d="M140.5,264.2H6.2V23.5h134.3L140.5,264.2L140.5,264.2z M7.4,263h131.9V24.7H7.4V263z"/>
</g>
<g>
	<g>
		<path class="st19" d="M51.8,60.3v-1.6H53v1.6H51.8z M51.8,71.5v-9.2h1.1v9.2C52.9,71.5,51.8,71.5,51.8,71.5z"/>
		<path class="st19" d="M58.8,71.5c-0.1,0-0.3,0.1-0.5,0.1c-0.2,0.1-0.4,0.1-0.7,0.1c-0.5,0-0.9-0.1-1.2-0.4
			c-0.3-0.3-0.4-0.7-0.4-1.4v-6.7h-1.3v-0.9H56v-2.6h1.1v2.6h1.7v0.9h-1.7v6.3c0,0.2,0,0.4,0,0.6c0,0.2,0,0.3,0.1,0.4
			c0.1,0.1,0.2,0.2,0.3,0.2c0.1,0,0.3,0.1,0.5,0.1c0.1,0,0.3,0,0.4,0c0.1,0,0.3-0.1,0.4-0.1V71.5z"/>
		<path class="st19" d="M60.5,74c0.1,0,0.3,0,0.4,0.1c0.1,0,0.3,0,0.5,0c0.3,0,0.5-0.1,0.7-0.3c0.2-0.2,0.3-0.4,0.5-0.7
			c0.1-0.3,0.2-0.5,0.3-0.8c0.1-0.3,0.2-0.5,0.3-0.7l-3.6-9.2h1.2l2.9,7.9l2.9-7.9h1.2l-3.4,9c-0.2,0.6-0.4,1.1-0.6,1.6
			c-0.2,0.5-0.4,0.9-0.6,1.2c-0.2,0.3-0.5,0.6-0.7,0.7c-0.3,0.2-0.6,0.3-0.9,0.3c-0.2,0-0.4,0-0.5,0c-0.2,0-0.3-0.1-0.5-0.1V74z"/>
		<path class="st17" d="M89,66.1c0.2,0,0.4-0.1,0.7-0.1c0.3,0,0.5-0.1,0.7-0.2c0.2-0.1,0.3-0.2,0.3-0.4c0-0.2,0.1-0.4,0.1-0.5
			c0-0.5-0.2-1-0.5-1.3c-0.3-0.3-0.9-0.5-1.8-0.5c-0.4,0-0.7,0-1,0.1c-0.3,0.1-0.6,0.2-0.8,0.3c-0.2,0.2-0.4,0.4-0.6,0.6
			c-0.1,0.3-0.2,0.6-0.3,1h-1.1c0-0.5,0.2-1,0.4-1.4s0.5-0.7,0.8-0.9c0.3-0.2,0.7-0.4,1.2-0.5c0.4-0.1,0.9-0.2,1.4-0.2
			c0.5,0,0.9,0.1,1.3,0.2c0.4,0.1,0.8,0.3,1.1,0.5c0.3,0.2,0.5,0.5,0.7,0.9c0.2,0.4,0.3,0.8,0.3,1.3v5c0,0.4,0.1,0.7,0.2,0.8
			c0.1,0.1,0.4,0.1,0.9-0.1v0.8c-0.1,0-0.2,0.1-0.4,0.1c-0.2,0-0.3,0.1-0.5,0.1c-0.2,0-0.3,0-0.5-0.1c-0.2,0-0.3-0.1-0.4-0.2
			c-0.1-0.1-0.2-0.2-0.3-0.3c-0.1-0.1-0.1-0.3-0.1-0.4c0-0.1,0-0.3,0-0.5c-0.4,0.5-1,0.9-1.5,1.1c-0.6,0.3-1.2,0.4-1.9,0.4
			c-0.4,0-0.8-0.1-1.2-0.2c-0.4-0.1-0.7-0.3-1-0.5s-0.5-0.5-0.7-0.8c-0.2-0.3-0.2-0.7-0.2-1.2c0-1.6,1.1-2.5,3.2-2.8L89,66.1z
			 M90.8,66.7c-0.4,0.2-0.9,0.3-1.4,0.4c-0.5,0.1-0.9,0.1-1.4,0.1c-0.8,0.1-1.4,0.2-1.9,0.5c-0.5,0.3-0.7,0.8-0.7,1.4
			c0,0.3,0.1,0.5,0.2,0.7c0.1,0.2,0.3,0.4,0.4,0.5c0.2,0.1,0.4,0.2,0.6,0.3c0.2,0.1,0.5,0.1,0.7,0.1c0.4,0,0.8-0.1,1.2-0.2
			c0.4-0.1,0.8-0.3,1.1-0.5c0.3-0.2,0.6-0.5,0.8-0.8c0.2-0.3,0.3-0.7,0.3-1.2L90.8,66.7L90.8,66.7z"/>
		<path class="st17" d="M97.8,71.5c-0.1,0-0.3,0.1-0.5,0.1c-0.2,0.1-0.4,0.1-0.7,0.1c-0.5,0-0.9-0.1-1.2-0.4
			c-0.3-0.3-0.4-0.7-0.4-1.4v-6.7h-1.3v-0.9H95v-2.6h1.1v2.6h1.7v0.9h-1.7v6.3c0,0.2,0,0.4,0,0.6c0,0.2,0,0.3,0.1,0.4
			c0.1,0.1,0.2,0.2,0.3,0.2c0.1,0,0.3,0.1,0.5,0.1c0.1,0,0.3,0,0.4,0c0.1,0,0.3-0.1,0.4-0.1V71.5z"/>
		<path class="st17" d="M106,65.2c-0.2-0.7-0.5-1.2-1-1.6c-0.5-0.4-1-0.6-1.8-0.6c-0.5,0-1,0.1-1.4,0.3c-0.4,0.2-0.7,0.5-1,0.9
			c-0.2,0.4-0.4,0.8-0.5,1.3c-0.1,0.5-0.2,0.9-0.2,1.4c0,0.5,0.1,1,0.2,1.4c0.1,0.5,0.3,0.9,0.5,1.2c0.2,0.4,0.6,0.7,1,0.9
			c0.4,0.2,0.9,0.3,1.4,0.3c0.8,0,1.4-0.2,1.9-0.7c0.5-0.4,0.8-1,0.9-1.8h1.1c-0.1,0.5-0.2,1-0.5,1.4c-0.2,0.4-0.5,0.8-0.8,1.1
			s-0.7,0.5-1.2,0.7c-0.4,0.2-1,0.2-1.5,0.2c-0.7,0-1.4-0.1-1.9-0.4c-0.5-0.2-1-0.6-1.3-1c-0.3-0.4-0.6-0.9-0.8-1.5
			c-0.2-0.6-0.2-1.2-0.2-1.9c0-0.6,0.1-1.2,0.3-1.8c0.2-0.6,0.5-1.1,0.8-1.5c0.4-0.4,0.8-0.8,1.3-1.1c0.5-0.3,1.1-0.4,1.8-0.4
			c1.1,0,1.9,0.3,2.6,0.8c0.7,0.5,1.1,1.3,1.2,2.4L106,65.2L106,65.2z"/>
		<path class="st17" d="M109.4,71.5V58.7h1.1v4.9c0.4-0.4,0.9-0.8,1.3-1.1c0.5-0.3,1-0.4,1.6-0.4c0.6,0,1.1,0.1,1.6,0.3
			c0.5,0.2,0.9,0.5,1.2,1c0.2,0.3,0.4,0.7,0.4,1c0,0.3,0.1,0.7,0.1,1.1v6h-1.1v-6c0-0.8-0.2-1.4-0.5-1.9c-0.4-0.4-1-0.6-1.8-0.6
			c-0.3,0-0.6,0.1-0.9,0.2c-0.3,0.1-0.5,0.2-0.7,0.4c-0.2,0.2-0.4,0.4-0.6,0.6c-0.2,0.2-0.3,0.4-0.4,0.7c-0.1,0.3-0.2,0.6-0.2,0.9
			c0,0.3,0,0.6,0,0.9v4.9H109.4z"/>
		<path class="st19" d="M49.4,62.8c-0.2-1-0.7-1.8-1.3-2.2c-0.6-0.4-1.5-0.7-2.5-0.7c-0.7,0-1.4,0.1-1.9,0.4c-0.5,0.3-1,0.7-1.3,1.2
			c-0.3,0.5-0.6,1.1-0.8,1.7c-0.2,0.6-0.2,1.3-0.2,2.1c0,0.7,0.1,1.3,0.2,2c0.1,0.7,0.4,1.2,0.7,1.7c0.3,0.5,0.8,0.9,1.3,1.2
			c0.6,0.3,1.2,0.5,2.1,0.5c0.5,0,1-0.1,1.4-0.3c0.4-0.2,0.8-0.4,1.1-0.7c0.3-0.3,0.6-0.7,0.8-1.1c0.2-0.4,0.4-0.9,0.5-1.3h1.2
			c-0.1,0.6-0.3,1.1-0.6,1.7c-0.3,0.5-0.6,1-1,1.4c-0.4,0.4-0.9,0.7-1.5,0.9c-0.6,0.2-1.3,0.3-2.1,0.3c-0.9,0-1.7-0.2-2.4-0.5
			c-0.7-0.3-1.2-0.8-1.6-1.4s-0.7-1.3-0.9-2c-0.2-0.8-0.3-1.6-0.3-2.5c0-1.2,0.1-2.1,0.4-3s0.7-1.5,1.2-2c0.5-0.5,1.1-0.9,1.8-1.1
			c0.7-0.2,1.4-0.3,2.2-0.3c0.6,0,1.2,0.1,1.7,0.2c0.5,0.2,1,0.4,1.4,0.7s0.7,0.7,1,1.2c0.3,0.5,0.4,1,0.5,1.7L49.4,62.8L49.4,62.8z
			"/>
		<path class="st17" d="M79.4,69.9L79.4,69.9L82,59.3h1.2L80,71.5h-1.3l-2.8-10.7h0l-2.8,10.7h-1.3l-3.1-12.2h1.1l2.6,10.5h0
			l2.8-10.5h1.3L79.4,69.9z"/>
	</g>
	<g>
		<polygon class="st17" points="37.2,48 34.6,49 34.6,54.8 37.2,54.8 		"/>
		<polygon class="st1" points="19.9,48 22.5,49 22.5,54.8 19.9,54.8 		"/>
		<path class="st17" d="M24.9,46.5v5.9l-5,1.6v-6l-4.7,1.4v7.4l2.5,2.5v13.9l10.8,1.8V45.5L24.9,46.5z M21.2,68.9
			c0.3,0.6,0.6,1,1.1,1c0.5,0,0.9-0.3,1.2-0.9c0.2-0.3,0.3-0.8,0.4-1.5l1.7-0.1c-0.2,1.5-0.6,2.7-1.2,3.6c-0.6,0.8-1.3,1.2-2.1,1.1
			c-0.9-0.1-1.6-0.7-2-1.7c-0.4-1-0.6-2.4-0.6-4.1c0-1.9,0.3-3.4,0.8-4.6c0.5-1.1,1.1-1.8,1.9-2.2c1.2-0.5,2.1-0.2,2.7,1
			c0.4,0.7,0.6,1.5,0.6,2.4l-1.7,0.4c-0.1-0.6-0.2-1-0.4-1.3c-0.3-0.5-0.7-0.6-1.2-0.4c-0.5,0.2-0.9,0.7-1.1,1.5
			c-0.3,0.8-0.4,1.8-0.4,3C20.8,67.3,20.9,68.2,21.2,68.9z"/>
		<path class="st1" d="M37.2,48v6l-5-1.6v-5.9l-3.6-0.9v29.6l10.8-1.8V59.3l2.5-2.5v-7.4L37.2,48z M37.2,71.8l-1.1,0.1l-0.7-7
			l-0.2-2.4l-0.3,2.3L34,72.2l-1.5,0.1L30,57.4l2.1,1l1,8.2l0.2,2.1l0.2-2l0.9-7.2l1.5,0.7l0.7,6.9l0.2,1.8l0.2-1.7l0.8-6.2l1,0.5
			L37.2,71.8z"/>
	</g>
</g>
<g>
	<g class="st20">
		<path class="st19" d="M36,88.4c-0.2,0.1-0.5,0.2-0.9,0.2c-1,0-1.7-0.6-1.7-1.8c0-1.1,0.7-1.8,1.8-1.8c0.4,0,0.7,0.1,0.8,0.2
			l-0.1,0.4c-0.2-0.1-0.4-0.1-0.7-0.1c-0.8,0-1.4,0.5-1.4,1.4c0,0.9,0.5,1.4,1.3,1.4c0.3,0,0.6-0.1,0.7-0.1L36,88.4z"/>
		<path class="st19" d="M38.7,87.2c0,0.9-0.6,1.3-1.3,1.3c-0.7,0-1.2-0.5-1.2-1.3c0-0.8,0.6-1.3,1.2-1.3
			C38.3,85.9,38.7,86.4,38.7,87.2z M36.7,87.2c0,0.6,0.3,1,0.8,1c0.4,0,0.8-0.4,0.8-1c0-0.4-0.2-1-0.8-1S36.7,86.8,36.7,87.2z"/>
		<path class="st19" d="M39.3,86.7c0-0.3,0-0.5,0-0.7h0.4l0,0.4h0c0.1-0.2,0.4-0.5,0.8-0.5c0.3,0,0.6,0.2,0.7,0.5h0
			c0.1-0.1,0.2-0.2,0.3-0.3c0.2-0.1,0.3-0.2,0.6-0.2c0.3,0,0.8,0.2,0.8,1.1v1.5h-0.4v-1.4c0-0.5-0.2-0.8-0.5-0.8
			c-0.3,0-0.5,0.2-0.5,0.4c0,0.1,0,0.1,0,0.2v1.6h-0.4V87c0-0.4-0.2-0.7-0.5-0.7c-0.3,0-0.5,0.2-0.6,0.5c0,0.1,0,0.1,0,0.2v1.5h-0.4
			V86.7z"/>
		<path class="st19" d="M43.7,86.8c0-0.3,0-0.6,0-0.8h0.4l0,0.4h0c0.2-0.3,0.5-0.5,0.9-0.5c0.6,0,1.1,0.5,1.1,1.3
			c0,0.9-0.6,1.4-1.1,1.4c-0.3,0-0.6-0.1-0.8-0.4h0v1.4h-0.5V86.8z M44.1,87.5c0,0.1,0,0.1,0,0.2c0.1,0.3,0.4,0.5,0.7,0.5
			c0.5,0,0.8-0.4,0.8-1c0-0.5-0.3-0.9-0.7-0.9c-0.3,0-0.6,0.2-0.7,0.6c0,0.1,0,0.1,0,0.2V87.5z"/>
		<path class="st19" d="M48,88.5l0-0.3h0c-0.1,0.2-0.4,0.4-0.8,0.4c-0.5,0-0.8-0.4-0.8-0.7c0-0.6,0.5-0.9,1.5-0.9v-0.1
			c0-0.2-0.1-0.6-0.6-0.6c-0.2,0-0.5,0.1-0.7,0.2l-0.1-0.3c0.2-0.1,0.5-0.2,0.8-0.2c0.8,0,1,0.5,1,1v0.9c0,0.2,0,0.4,0,0.6H48z
			 M48,87.2c-0.5,0-1.1,0.1-1.1,0.6c0,0.3,0.2,0.4,0.4,0.4c0.3,0,0.5-0.2,0.6-0.4c0,0,0-0.1,0-0.1V87.2z"/>
		<path class="st19" d="M49.1,86.8c0-0.3,0-0.6,0-0.8h0.4l0,0.5h0c0.1-0.3,0.4-0.6,0.7-0.6c0.1,0,0.1,0,0.1,0v0.4c0,0-0.1,0-0.2,0
			c-0.3,0-0.6,0.2-0.6,0.6c0,0.1,0,0.1,0,0.2v1.3h-0.5V86.8z"/>
		<path class="st19" d="M51.5,85.2V86h0.7v0.3h-0.7v1.4c0,0.3,0.1,0.5,0.3,0.5c0.1,0,0.2,0,0.3,0l0,0.3c-0.1,0-0.2,0.1-0.4,0.1
			c-0.2,0-0.4-0.1-0.5-0.2c-0.1-0.1-0.2-0.4-0.2-0.7v-1.4h-0.4V86h0.4v-0.6L51.5,85.2z"/>
		<path class="st19" d="M53.2,85.3c0,0.2-0.1,0.3-0.3,0.3c-0.2,0-0.3-0.1-0.3-0.3c0-0.2,0.1-0.3,0.3-0.3
			C53.1,85,53.2,85.1,53.2,85.3z M52.7,88.5V86h0.5v2.5H52.7z"/>
		<path class="st19" d="M53.9,84.8h0.5v3.7h-0.5V84.8z"/>
		<path class="st19" d="M55.2,84.8h0.5v1.6h0c0.1-0.1,0.2-0.2,0.3-0.3c0.1-0.1,0.3-0.1,0.5-0.1c0.3,0,0.9,0.2,0.9,1.1v1.5h-0.5V87
			c0-0.4-0.2-0.7-0.6-0.7c-0.3,0-0.5,0.2-0.6,0.5c0,0.1,0,0.1,0,0.2v1.5h-0.5V84.8z"/>
		<path class="st19" d="M58.3,87.3c0,0.6,0.4,0.9,0.9,0.9c0.3,0,0.5-0.1,0.7-0.1l0.1,0.3c-0.2,0.1-0.4,0.2-0.8,0.2
			c-0.8,0-1.2-0.5-1.2-1.3c0-0.8,0.4-1.4,1.2-1.4c0.8,0,1,0.7,1,1.2c0,0.1,0,0.2,0,0.2H58.3z M59.6,87c0-0.3-0.1-0.7-0.6-0.7
			c-0.5,0-0.7,0.4-0.7,0.7H59.6z"/>
		<path class="st19" d="M62,87.3c0,0.6,0.4,0.9,0.9,0.9c0.3,0,0.5-0.1,0.7-0.1l0.1,0.3c-0.2,0.1-0.4,0.2-0.8,0.2
			c-0.8,0-1.2-0.5-1.2-1.3c0-0.8,0.4-1.4,1.2-1.4c0.8,0,1,0.7,1,1.2c0,0.1,0,0.2,0,0.2H62z M63.4,87c0-0.3-0.1-0.7-0.6-0.7
			c-0.5,0-0.7,0.4-0.7,0.7H63.4z"/>
		<path class="st19" d="M64.6,86l0.4,0.5c0.1,0.1,0.2,0.3,0.3,0.4h0c0.1-0.2,0.2-0.3,0.2-0.4l0.4-0.5h0.5l-0.9,1.2l0.9,1.3h-0.5
			l-0.4-0.6c-0.1-0.1-0.2-0.3-0.3-0.4h0c-0.1,0.2-0.2,0.3-0.3,0.4l-0.4,0.6H64l0.9-1.3L64.1,86H64.6z"/>
		<path class="st19" d="M66.8,86.8c0-0.3,0-0.6,0-0.8h0.4l0,0.4h0c0.2-0.3,0.5-0.5,0.9-0.5c0.6,0,1.1,0.5,1.1,1.3
			c0,0.9-0.6,1.4-1.1,1.4c-0.3,0-0.6-0.1-0.8-0.4h0v1.4h-0.5V86.8z M67.2,87.5c0,0.1,0,0.1,0,0.2c0.1,0.3,0.4,0.5,0.7,0.5
			c0.5,0,0.8-0.4,0.8-1c0-0.5-0.3-0.9-0.7-0.9c-0.3,0-0.6,0.2-0.7,0.6c0,0.1,0,0.1,0,0.2V87.5z"/>
		<path class="st19" d="M70,87.3c0,0.6,0.4,0.9,0.9,0.9c0.3,0,0.5-0.1,0.7-0.1l0.1,0.3c-0.2,0.1-0.4,0.2-0.8,0.2
			c-0.8,0-1.2-0.5-1.2-1.3c0-0.8,0.4-1.4,1.2-1.4c0.8,0,1,0.7,1,1.2c0,0.1,0,0.2,0,0.2H70z M71.3,87c0-0.3-0.1-0.7-0.6-0.7
			c-0.5,0-0.7,0.4-0.7,0.7H71.3z"/>
		<path class="st19" d="M72.3,86.8c0-0.3,0-0.6,0-0.8h0.4l0,0.5h0c0.1-0.3,0.4-0.6,0.7-0.6c0.1,0,0.1,0,0.1,0v0.4c0,0-0.1,0-0.2,0
			c-0.3,0-0.6,0.2-0.6,0.6c0,0.1,0,0.1,0,0.2v1.3h-0.5V86.8z"/>
		<path class="st19" d="M74.6,85.3c0,0.2-0.1,0.3-0.3,0.3c-0.2,0-0.3-0.1-0.3-0.3c0-0.2,0.1-0.3,0.3-0.3
			C74.5,85,74.6,85.1,74.6,85.3z M74.1,88.5V86h0.5v2.5H74.1z"/>
		<path class="st19" d="M75.5,87.3c0,0.6,0.4,0.9,0.9,0.9c0.3,0,0.5-0.1,0.7-0.1l0.1,0.3c-0.2,0.1-0.4,0.2-0.8,0.2
			c-0.8,0-1.2-0.5-1.2-1.3c0-0.8,0.4-1.4,1.2-1.4c0.8,0,1,0.7,1,1.2c0,0.1,0,0.2,0,0.2H75.5z M76.9,87c0-0.3-0.1-0.7-0.6-0.7
			c-0.5,0-0.7,0.4-0.7,0.7H76.9z M76.4,84.9l0.5,0.7h-0.3l-0.3-0.5h0L76,85.6h-0.3l0.5-0.7H76.4z"/>
		<path class="st19" d="M77.9,86.7c0-0.3,0-0.5,0-0.7h0.4l0,0.4h0c0.1-0.2,0.4-0.5,0.8-0.5c0.3,0,0.9,0.2,0.9,1.1v1.5h-0.5V87
			c0-0.4-0.2-0.7-0.6-0.7c-0.3,0-0.5,0.2-0.6,0.5c0,0.1,0,0.1,0,0.2v1.5h-0.5V86.7z"/>
		<path class="st19" d="M82.6,88.4c-0.1,0.1-0.4,0.1-0.7,0.1c-0.8,0-1.3-0.5-1.3-1.3c0-0.8,0.5-1.3,1.4-1.3c0.3,0,0.5,0.1,0.6,0.1
			l-0.1,0.4c-0.1-0.1-0.3-0.1-0.5-0.1c-0.6,0-0.9,0.4-0.9,1c0,0.6,0.4,0.9,0.9,0.9c0.3,0,0.4-0.1,0.6-0.1L82.6,88.4z"/>
		<path class="st19" d="M83.6,85.3c0,0.2-0.1,0.3-0.3,0.3c-0.2,0-0.3-0.1-0.3-0.3c0-0.2,0.1-0.3,0.3-0.3
			C83.5,85,83.6,85.1,83.6,85.3z M83.1,88.5V86h0.5v2.5H83.1z"/>
		<path class="st19" d="M85.7,88.5l0-0.3h0c-0.1,0.2-0.4,0.4-0.8,0.4c-0.5,0-0.8-0.4-0.8-0.7c0-0.6,0.5-0.9,1.5-0.9v-0.1
			c0-0.2-0.1-0.6-0.6-0.6c-0.2,0-0.5,0.1-0.7,0.2l-0.1-0.3c0.2-0.1,0.5-0.2,0.8-0.2c0.8,0,1,0.5,1,1v0.9c0,0.2,0,0.4,0,0.6H85.7z
			 M85.7,87.2c-0.5,0-1.1,0.1-1.1,0.6c0,0.3,0.2,0.4,0.4,0.4c0.3,0,0.5-0.2,0.6-0.4c0,0,0-0.1,0-0.1V87.2z"/>
		<path class="st19" d="M86.8,88c0.1,0.1,0.4,0.2,0.6,0.2c0.3,0,0.5-0.2,0.5-0.4c0-0.2-0.1-0.3-0.5-0.5c-0.5-0.2-0.7-0.4-0.7-0.7
			c0-0.4,0.3-0.7,0.9-0.7c0.3,0,0.5,0.1,0.6,0.2l-0.1,0.3c-0.1-0.1-0.3-0.1-0.5-0.1c-0.3,0-0.4,0.2-0.4,0.3c0,0.2,0.2,0.3,0.5,0.4
			c0.4,0.2,0.7,0.4,0.7,0.8c0,0.4-0.3,0.8-0.9,0.8c-0.3,0-0.5-0.1-0.7-0.2L86.8,88z"/>
	</g>
	<g>
		<g>
			<path d="M24.5,91.4l-0.6,0.2c-0.2,0.1-0.3,0-0.4-0.1l-1.2-1.9c-0.1-0.2,0-0.4,0.2-0.5l0.6-0.2c0.2-0.1,0.3,0,0.4,0.1l1.2,1.9
				C24.8,91.1,24.7,91.4,24.5,91.4z"/>
			<polygon points="27.6,88.6 24.2,88.9 23.1,86 25.8,83.9 			"/>
			<g>
				<polygon points="23.6,87.4 24.2,88.9 27.6,88.6 26.7,86.3 				"/>
				<path d="M27.7,88.9L27.7,88.9c-0.1,0-0.3,0-0.3-0.1l-1.8-4.8c0-0.1,0-0.3,0.1-0.3l0,0c0.1,0,0.3,0,0.3,0.1l1.8,4.8
					C27.9,88.7,27.8,88.9,27.7,88.9z"/>
			</g>
			<path d="M26.5,86.4l0.9,2.4c0,0.1,0.2,0.2,0.3,0.1s0.2-0.2,0.1-0.3l-0.9-2.4L26.5,86.4z"/>
			<path d="M21.3,89.7l1-0.4l-0.9-2.5l-1,0.4c-0.3,0.1-0.5,0.5-0.4,0.8l0.5,1.2C20.5,89.7,20.9,89.9,21.3,89.7z"/>
			<path d="M20.2,88.7l0.2,0.6c0.1,0.3,0.5,0.5,0.8,0.4l1-0.4l-0.5-1.2L20.2,88.7z"/>
			<path d="M24.2,88.9l-1.9,0.7c-0.1,0.1-0.3,0-0.4-0.2L21,87.1c-0.1-0.1,0-0.3,0.2-0.4l1.9-0.7L24.2,88.9z"/>
			<path d="M21.5,88.3l0.4,1.2c0.1,0.1,0.2,0.2,0.4,0.2l1.9-0.7l-0.5-1.4L21.5,88.3z"/>
		</g>
		<path d="M27.9,86.6l-0.6-0.3c0-0.2,0-0.3,0-0.5c-0.1-0.2-0.2-0.3-0.4-0.4l0.3-0.5c0.3,0.2,0.5,0.4,0.7,0.8
			C28.1,86,28.1,86.3,27.9,86.6L27.9,86.6z"/>
		<path d="M28.7,87c0.2-0.5,0.2-1,0-1.6c-0.2-0.5-0.6-1-1.1-1.2l0.3-0.5c0.6,0.3,1.1,0.8,1.4,1.5c0.3,0.7,0.2,1.4,0,2L28.7,87z"/>
		<path d="M30.5,87.8L30,87.5c0.3-0.8,0.4-1.8,0.1-2.7c-0.3-0.9-1-1.6-1.8-2l0.3-0.5c1,0.5,1.7,1.3,2.1,2.3
			C31,85.7,30.9,86.8,30.5,87.8L30.5,87.8z"/>
	</g>
</g>
<g>
	<g class="st20">
		<path class="st19" d="M33.5,103.8c0.2,0,0.5-0.1,0.9-0.1c0.4,0,0.8,0.1,1,0.3c0.2,0.2,0.3,0.4,0.3,0.7c0,0.3-0.1,0.6-0.3,0.7
			c-0.2,0.3-0.6,0.4-1.1,0.4c-0.1,0-0.3,0-0.4,0v1.4h-0.5V103.8z M34,105.4c0.1,0,0.2,0,0.4,0c0.5,0,0.9-0.3,0.9-0.7
			c0-0.5-0.3-0.7-0.8-0.7c-0.2,0-0.3,0-0.4,0V105.4z"/>
		<path class="st19" d="M36.2,105.5c0-0.3,0-0.6,0-0.8h0.4l0,0.5h0c0.1-0.3,0.4-0.6,0.7-0.6c0.1,0,0.1,0,0.1,0v0.4c0,0-0.1,0-0.2,0
			c-0.3,0-0.6,0.2-0.6,0.6c0,0.1,0,0.1,0,0.2v1.3h-0.5V105.5z"/>
		<path class="st19" d="M40.1,105.9c0,0.9-0.6,1.3-1.3,1.3c-0.7,0-1.2-0.5-1.2-1.3c0-0.8,0.6-1.3,1.2-1.3
			C39.6,104.6,40.1,105.2,40.1,105.9z M38.1,106c0,0.6,0.3,1,0.8,1c0.4,0,0.8-0.4,0.8-1c0-0.4-0.2-1-0.8-1S38.1,105.5,38.1,106z"/>
		<path class="st19" d="M42.5,107.1c-0.1,0.1-0.4,0.1-0.7,0.1c-0.8,0-1.3-0.5-1.3-1.3c0-0.8,0.5-1.3,1.4-1.3c0.3,0,0.5,0.1,0.6,0.1
			l-0.1,0.4c-0.1-0.1-0.3-0.1-0.5-0.1c-0.6,0-0.9,0.4-0.9,1c0,0.6,0.4,0.9,0.9,0.9c0.3,0,0.4-0.1,0.6-0.1L42.5,107.1z"/>
		<path class="st19" d="M45.1,106.5c0,0.3,0,0.5,0,0.7h-0.4l0-0.4h0c-0.1,0.2-0.4,0.5-0.8,0.5c-0.4,0-0.9-0.2-0.9-1.1v-1.5h0.5v1.4
			c0,0.5,0.1,0.8,0.6,0.8c0.3,0,0.5-0.2,0.6-0.4c0-0.1,0-0.2,0-0.2v-1.5h0.5V106.5z"/>
		<path class="st19" d="M45.9,105.5c0-0.3,0-0.6,0-0.8h0.4l0,0.5h0c0.1-0.3,0.4-0.6,0.7-0.6c0.1,0,0.1,0,0.1,0v0.4c0,0-0.1,0-0.2,0
			c-0.3,0-0.6,0.2-0.6,0.6c0,0.1,0,0.1,0,0.2v1.3h-0.5V105.5z"/>
		<path class="st19" d="M47.8,106c0,0.6,0.4,0.9,0.9,0.9c0.3,0,0.5-0.1,0.7-0.1l0.1,0.3c-0.2,0.1-0.4,0.2-0.8,0.2
			c-0.8,0-1.2-0.5-1.2-1.3c0-0.8,0.4-1.4,1.2-1.4c0.8,0,1,0.7,1,1.2c0,0.1,0,0.2,0,0.2H47.8z M49.2,105.7c0-0.3-0.1-0.7-0.6-0.7
			c-0.5,0-0.7,0.4-0.7,0.7H49.2z"/>
		<path class="st19" d="M51.5,106c0,0.6,0.4,0.9,0.9,0.9c0.3,0,0.5-0.1,0.7-0.1l0.1,0.3c-0.2,0.1-0.4,0.2-0.8,0.2
			c-0.8,0-1.2-0.5-1.2-1.3c0-0.8,0.4-1.4,1.2-1.4c0.8,0,1,0.7,1,1.2c0,0.1,0,0.2,0,0.2H51.5z M52.9,105.7c0-0.3-0.1-0.7-0.6-0.7
			c-0.5,0-0.7,0.4-0.7,0.7H52.9z"/>
		<path class="st19" d="M54.1,104.7l0.4,0.5c0.1,0.1,0.2,0.3,0.3,0.4h0c0.1-0.2,0.2-0.3,0.2-0.4l0.4-0.5h0.5l-0.9,1.2l0.9,1.3h-0.5
			l-0.4-0.6c-0.1-0.1-0.2-0.3-0.3-0.4h0c-0.1,0.2-0.2,0.3-0.3,0.4l-0.4,0.6h-0.5l0.9-1.3l-0.9-1.2H54.1z"/>
		<path class="st19" d="M56.3,105.5c0-0.3,0-0.6,0-0.8h0.4l0,0.4h0c0.2-0.3,0.5-0.5,0.9-0.5c0.6,0,1.1,0.5,1.1,1.3
			c0,0.9-0.6,1.4-1.1,1.4c-0.3,0-0.6-0.1-0.8-0.4h0v1.4h-0.5V105.5z M56.7,106.2c0,0.1,0,0.1,0,0.2c0.1,0.3,0.4,0.5,0.7,0.5
			c0.5,0,0.8-0.4,0.8-1c0-0.5-0.3-0.9-0.7-0.9c-0.3,0-0.6,0.2-0.7,0.6c0,0.1,0,0.1,0,0.2V106.2z"/>
		<path class="st19" d="M59.5,106c0,0.6,0.4,0.9,0.9,0.9c0.3,0,0.5-0.1,0.7-0.1l0.1,0.3c-0.2,0.1-0.4,0.2-0.8,0.2
			c-0.8,0-1.2-0.5-1.2-1.3c0-0.8,0.4-1.4,1.2-1.4c0.8,0,1,0.7,1,1.2c0,0.1,0,0.2,0,0.2H59.5z M60.8,105.7c0-0.3-0.1-0.7-0.6-0.7
			c-0.5,0-0.7,0.4-0.7,0.7H60.8z"/>
		<path class="st19" d="M61.9,105.5c0-0.3,0-0.6,0-0.8h0.4l0,0.5h0c0.1-0.3,0.4-0.6,0.7-0.6c0.1,0,0.1,0,0.1,0v0.4c0,0-0.1,0-0.2,0
			c-0.3,0-0.6,0.2-0.6,0.6c0,0.1,0,0.1,0,0.2v1.3h-0.5V105.5z"/>
		<path class="st19" d="M64.1,104c0,0.2-0.1,0.3-0.3,0.3c-0.2,0-0.3-0.1-0.3-0.3c0-0.2,0.1-0.3,0.3-0.3
			C64,103.7,64.1,103.8,64.1,104z M63.6,107.2v-2.5H64v2.5H63.6z"/>
		<path class="st19" d="M65.1,106c0,0.6,0.4,0.9,0.9,0.9c0.3,0,0.5-0.1,0.7-0.1l0.1,0.3c-0.2,0.1-0.4,0.2-0.8,0.2
			c-0.8,0-1.2-0.5-1.2-1.3c0-0.8,0.4-1.4,1.2-1.4c0.8,0,1,0.7,1,1.2c0,0.1,0,0.2,0,0.2H65.1z M66.4,105.7c0-0.3-0.1-0.7-0.6-0.7
			c-0.5,0-0.7,0.4-0.7,0.7H66.4z M65.9,103.6l0.5,0.7h-0.3l-0.3-0.5h0l-0.3,0.5h-0.3l0.5-0.7H65.9z"/>
		<path class="st19" d="M67.4,105.4c0-0.3,0-0.5,0-0.7h0.4l0,0.4h0c0.1-0.2,0.4-0.5,0.8-0.5c0.3,0,0.9,0.2,0.9,1.1v1.5h-0.5v-1.5
			c0-0.4-0.2-0.7-0.6-0.7c-0.3,0-0.5,0.2-0.6,0.5c0,0.1,0,0.1,0,0.2v1.5h-0.5V105.4z"/>
		<path class="st19" d="M72.1,107.1c-0.1,0.1-0.4,0.1-0.7,0.1c-0.8,0-1.3-0.5-1.3-1.3c0-0.8,0.5-1.3,1.4-1.3c0.3,0,0.5,0.1,0.6,0.1
			l-0.1,0.4c-0.1-0.1-0.3-0.1-0.5-0.1c-0.6,0-0.9,0.4-0.9,1c0,0.6,0.4,0.9,0.9,0.9c0.3,0,0.4-0.1,0.6-0.1L72.1,107.1z"/>
		<path class="st19" d="M73.1,104c0,0.2-0.1,0.3-0.3,0.3c-0.2,0-0.3-0.1-0.3-0.3c0-0.2,0.1-0.3,0.3-0.3
			C73,103.7,73.1,103.8,73.1,104z M72.6,107.2v-2.5h0.5v2.5H72.6z"/>
		<path class="st19" d="M75.2,107.2l0-0.3h0c-0.1,0.2-0.4,0.4-0.8,0.4c-0.5,0-0.8-0.4-0.8-0.7c0-0.6,0.5-0.9,1.5-0.9v-0.1
			c0-0.2-0.1-0.6-0.6-0.6c-0.2,0-0.5,0.1-0.7,0.2l-0.1-0.3c0.2-0.1,0.5-0.2,0.8-0.2c0.8,0,1,0.5,1,1v0.9c0,0.2,0,0.4,0,0.6H75.2z
			 M75.2,105.9c-0.5,0-1.1,0.1-1.1,0.6c0,0.3,0.2,0.4,0.4,0.4c0.3,0,0.5-0.2,0.6-0.4c0,0,0-0.1,0-0.1V105.9z"/>
		<path class="st19" d="M76.3,106.8c0.1,0.1,0.4,0.2,0.6,0.2c0.3,0,0.5-0.2,0.5-0.4c0-0.2-0.1-0.3-0.5-0.5c-0.5-0.2-0.7-0.4-0.7-0.7
			c0-0.4,0.3-0.7,0.9-0.7c0.3,0,0.5,0.1,0.6,0.2l-0.1,0.3c-0.1-0.1-0.3-0.1-0.5-0.1c-0.3,0-0.4,0.2-0.4,0.3c0,0.2,0.2,0.3,0.5,0.4
			c0.4,0.2,0.7,0.4,0.7,0.8c0,0.4-0.3,0.8-0.9,0.8c-0.3,0-0.5-0.1-0.7-0.2L76.3,106.8z"/>
	</g>
	<g>
		<path d="M30.2,109.8l-1.9-1.9c0-0.1,0-0.1,0-0.2c0-0.6-0.5-1.1-1.1-1.1c-0.6,0-1.1,0.5-1.1,1.1c0,0.6,0.5,1.1,1.1,1.1
			c0.1,0,0.1,0,0.2,0l1.9,1.9c0.2,0.2,0.6,0.2,0.9,0C30.4,110.4,30.4,110.1,30.2,109.8L30.2,109.8z M30.2,109.8l-1.9-1.9
			c0-0.1,0-0.1,0-0.2c0-0.6-0.5-1.1-1.1-1.1c-0.6,0-1.1,0.5-1.1,1.1c0,0.6,0.5,1.1,1.1,1.1c0.1,0,0.1,0,0.2,0l1.9,1.9
			c0.2,0.2,0.6,0.2,0.9,0C30.4,110.4,30.4,110.1,30.2,109.8L30.2,109.8z"/>
		<path d="M30.3,110.6c0.1-0.2,0.1-0.5-0.1-0.7l-1.9-1.9c0-0.1,0-0.1,0-0.2c0-0.6-0.5-1.1-1.1-1.1c-0.2,0-0.5,0.1-0.6,0.2
			c-0.1,0.2-0.2,0.4-0.2,0.7c0,0.6,0.5,1.1,1.1,1.1c0.1,0,0.1,0,0.2,0l1.9,1.9C29.7,110.7,30,110.7,30.3,110.6L30.3,110.6z"/>
		<path d="M24.4,101c-2.2,0-4,1.8-4,4s1.8,4,4,4s4-1.8,4-4C28.5,102.8,26.7,101,24.4,101L24.4,101z M24.4,108.2
			c-1.7,0-3.2-1.4-3.2-3.2c0-1.7,1.4-3.2,3.2-3.2s3.2,1.4,3.2,3.2C27.6,106.7,26.2,108.2,24.4,108.2L24.4,108.2z M24.4,101
			c-2.2,0-4,1.8-4,4s1.8,4,4,4s4-1.8,4-4C28.5,102.8,26.7,101,24.4,101L24.4,101z M24.4,108.2c-1.7,0-3.2-1.4-3.2-3.2
			c0-1.7,1.4-3.2,3.2-3.2s3.2,1.4,3.2,3.2C27.6,106.7,26.2,108.2,24.4,108.2L24.4,108.2z"/>
	</g>
</g>
<g>
	<g class="st20">
		<path class="st19" d="M36.5,124.6c0,1.2-0.7,1.8-1.6,1.8c-0.9,0-1.6-0.7-1.6-1.8c0-1.1,0.7-1.8,1.6-1.8
			C35.9,122.8,36.5,123.5,36.5,124.6z M33.8,124.6c0,0.7,0.4,1.4,1.1,1.4c0.7,0,1.1-0.7,1.1-1.5c0-0.7-0.4-1.4-1.1-1.4
			C34.2,123.2,33.8,123.9,33.8,124.6z"/>
		<path class="st19" d="M39.9,126L39.9,126c-0.1,0.2-0.4,0.4-0.8,0.4c-0.6,0-1.1-0.5-1.1-1.3c0-0.9,0.6-1.4,1.1-1.4
			c0.4,0,0.7,0.2,0.8,0.4h0l0-0.4h0.4c0,0.2,0,0.4,0,0.7v2.9h-0.5V126z M39.9,124.9c0-0.1,0-0.1,0-0.2c-0.1-0.3-0.3-0.5-0.7-0.5
			c-0.5,0-0.8,0.4-0.8,1c0,0.5,0.2,0.9,0.7,0.9c0.3,0,0.6-0.2,0.7-0.5c0-0.1,0-0.2,0-0.2V124.9z"/>
		<path class="st19" d="M43.2,125.7c0,0.3,0,0.5,0,0.7h-0.4l0-0.4h0c-0.1,0.2-0.4,0.5-0.8,0.5c-0.4,0-0.9-0.2-0.9-1.1v-1.5h0.5v1.4
			c0,0.5,0.1,0.8,0.6,0.8c0.3,0,0.5-0.2,0.6-0.4c0-0.1,0-0.2,0-0.2v-1.5h0.5V125.7z"/>
		<path class="st19" d="M44.3,125.2c0,0.6,0.4,0.9,0.9,0.9c0.3,0,0.5-0.1,0.7-0.1l0.1,0.3c-0.2,0.1-0.4,0.2-0.8,0.2
			c-0.8,0-1.2-0.5-1.2-1.3c0-0.8,0.4-1.4,1.2-1.4c0.8,0,1,0.7,1,1.2c0,0.1,0,0.2,0,0.2H44.3z M45.6,124.9c0-0.3-0.1-0.7-0.6-0.7
			c-0.5,0-0.7,0.4-0.7,0.7H45.6z"/>
		<path class="st19" d="M48,125.2c0,0.6,0.4,0.9,0.9,0.9c0.3,0,0.5-0.1,0.7-0.1l0.1,0.3c-0.2,0.1-0.4,0.2-0.8,0.2
			c-0.8,0-1.2-0.5-1.2-1.3c0-0.8,0.4-1.4,1.2-1.4c0.8,0,1,0.7,1,1.2c0,0.1,0,0.2,0,0.2H48z M49.3,124.9c0-0.3-0.1-0.7-0.6-0.7
			c-0.5,0-0.7,0.4-0.7,0.7H49.3z"/>
		<path class="st19" d="M50.3,125.9c0.1,0.1,0.4,0.2,0.6,0.2c0.3,0,0.5-0.2,0.5-0.4c0-0.2-0.1-0.3-0.5-0.5c-0.5-0.2-0.7-0.4-0.7-0.7
			c0-0.4,0.3-0.7,0.9-0.7c0.3,0,0.5,0.1,0.6,0.2l-0.1,0.3c-0.1-0.1-0.3-0.1-0.5-0.1c-0.3,0-0.4,0.2-0.4,0.3c0,0.2,0.2,0.3,0.5,0.4
			c0.4,0.2,0.7,0.4,0.7,0.8c0,0.4-0.3,0.8-0.9,0.8c-0.3,0-0.5-0.1-0.7-0.2L50.3,125.9z"/>
		<path class="st19" d="M52.9,123.1v0.7h0.7v0.3h-0.7v1.4c0,0.3,0.1,0.5,0.3,0.5c0.1,0,0.2,0,0.3,0l0,0.3c-0.1,0-0.2,0.1-0.4,0.1
			c-0.2,0-0.4-0.1-0.5-0.2c-0.1-0.1-0.2-0.4-0.2-0.7v-1.4h-0.4v-0.3h0.4v-0.6L52.9,123.1z"/>
		<path class="st19" d="M55.5,126.4l0-0.3h0c-0.1,0.2-0.4,0.4-0.8,0.4c-0.5,0-0.8-0.4-0.8-0.7c0-0.6,0.5-0.9,1.5-0.9v-0.1
			c0-0.2-0.1-0.6-0.6-0.6c-0.2,0-0.5,0.1-0.7,0.2l-0.1-0.3c0.2-0.1,0.5-0.2,0.8-0.2c0.8,0,1,0.5,1,1v0.9c0,0.2,0,0.4,0,0.6H55.5z
			 M55.4,125.1c-0.5,0-1.1,0.1-1.1,0.6c0,0.3,0.2,0.4,0.4,0.4c0.3,0,0.5-0.2,0.6-0.4c0,0,0-0.1,0-0.1V125.1z M55.7,122.8l-0.6,0.7
			h-0.3l0.5-0.7H55.7z"/>
		<path class="st19" d="M59.1,126.4l0-0.3h0c-0.1,0.2-0.4,0.4-0.8,0.4c-0.5,0-0.8-0.4-0.8-0.7c0-0.6,0.5-0.9,1.5-0.9v-0.1
			c0-0.2-0.1-0.6-0.6-0.6c-0.2,0-0.5,0.1-0.7,0.2l-0.1-0.3c0.2-0.1,0.5-0.2,0.8-0.2c0.8,0,1,0.5,1,1v0.9c0,0.2,0,0.4,0,0.6H59.1z
			 M59.1,125.1c-0.5,0-1.1,0.1-1.1,0.6c0,0.3,0.2,0.4,0.4,0.4c0.3,0,0.5-0.2,0.6-0.4c0,0,0-0.1,0-0.1V125.1z"/>
		<path class="st19" d="M62,126.3c-0.1,0.1-0.4,0.1-0.7,0.1c-0.8,0-1.3-0.5-1.3-1.3c0-0.8,0.5-1.3,1.4-1.3c0.3,0,0.5,0.1,0.6,0.1
			l-0.1,0.4c-0.1-0.1-0.3-0.1-0.5-0.1c-0.6,0-0.9,0.4-0.9,1c0,0.6,0.4,0.9,0.9,0.9c0.3,0,0.4-0.1,0.6-0.1L62,126.3z"/>
		<path class="st19" d="M64.8,125.1c0,0.9-0.6,1.3-1.3,1.3c-0.7,0-1.2-0.5-1.2-1.3c0-0.8,0.6-1.3,1.2-1.3
			C64.3,123.8,64.8,124.3,64.8,125.1z M62.8,125.1c0,0.6,0.3,1,0.8,1c0.4,0,0.8-0.4,0.8-1c0-0.4-0.2-1-0.8-1S62.8,124.6,62.8,125.1z
			"/>
		<path class="st19" d="M65.4,124.5c0-0.3,0-0.5,0-0.7h0.4l0,0.4h0c0.1-0.2,0.4-0.5,0.8-0.5c0.3,0,0.9,0.2,0.9,1.1v1.5h-0.5v-1.5
			c0-0.4-0.2-0.7-0.6-0.7c-0.3,0-0.5,0.2-0.6,0.5c0,0.1,0,0.1,0,0.2v1.5h-0.5V124.5z"/>
		<path class="st19" d="M68.8,123.1v0.7h0.7v0.3h-0.7v1.4c0,0.3,0.1,0.5,0.3,0.5c0.1,0,0.2,0,0.3,0l0,0.3c-0.1,0-0.2,0.1-0.4,0.1
			c-0.2,0-0.4-0.1-0.5-0.2c-0.1-0.1-0.2-0.4-0.2-0.7v-1.4H68v-0.3h0.4v-0.6L68.8,123.1z"/>
		<path class="st19" d="M70.2,125.2c0,0.6,0.4,0.9,0.9,0.9c0.3,0,0.5-0.1,0.7-0.1l0.1,0.3c-0.2,0.1-0.4,0.2-0.8,0.2
			c-0.8,0-1.2-0.5-1.2-1.3c0-0.8,0.4-1.4,1.2-1.4c0.8,0,1,0.7,1,1.2c0,0.1,0,0.2,0,0.2H70.2z M71.6,124.9c0-0.3-0.1-0.7-0.6-0.7
			c-0.5,0-0.7,0.4-0.7,0.7H71.6z"/>
		<path class="st19" d="M74.4,126.3c-0.1,0.1-0.4,0.1-0.7,0.1c-0.8,0-1.3-0.5-1.3-1.3c0-0.8,0.5-1.3,1.4-1.3c0.3,0,0.5,0.1,0.6,0.1
			l-0.1,0.4c-0.1-0.1-0.3-0.1-0.5-0.1c-0.6,0-0.9,0.4-0.9,1c0,0.6,0.4,0.9,0.9,0.9c0.3,0,0.4-0.1,0.6-0.1L74.4,126.3z"/>
		<path class="st19" d="M75.1,125.2c0,0.6,0.4,0.9,0.9,0.9c0.3,0,0.5-0.1,0.7-0.1l0.1,0.3c-0.2,0.1-0.4,0.2-0.8,0.2
			c-0.8,0-1.2-0.5-1.2-1.3c0-0.8,0.4-1.4,1.2-1.4c0.8,0,1,0.7,1,1.2c0,0.1,0,0.2,0,0.2H75.1z M76.5,124.9c0-0.3-0.1-0.7-0.6-0.7
			c-0.5,0-0.7,0.4-0.7,0.7H76.5z"/>
		<path class="st19" d="M77.5,124.5c0-0.3,0-0.5,0-0.7h0.4l0,0.4h0c0.1-0.2,0.4-0.5,0.8-0.5c0.3,0,0.9,0.2,0.9,1.1v1.5h-0.5v-1.5
			c0-0.4-0.2-0.7-0.6-0.7c-0.3,0-0.5,0.2-0.6,0.5c0,0.1,0,0.1,0,0.2v1.5h-0.5V124.5z"/>
		<path class="st19" d="M82.6,122.7v3c0,0.2,0,0.5,0,0.7h-0.4l0-0.4h0c-0.1,0.3-0.4,0.5-0.9,0.5c-0.6,0-1.1-0.5-1.1-1.3
			c0-0.8,0.5-1.4,1.1-1.4c0.4,0,0.6,0.2,0.8,0.4h0v-1.5H82.6z M82.1,124.9c0-0.1,0-0.1,0-0.2c-0.1-0.3-0.3-0.5-0.7-0.5
			c-0.5,0-0.8,0.4-0.8,1c0,0.5,0.2,0.9,0.7,0.9c0.3,0,0.6-0.2,0.7-0.5c0-0.1,0-0.1,0-0.2V124.9z"/>
		<path class="st19" d="M85.6,125.1c0,0.9-0.6,1.3-1.3,1.3c-0.7,0-1.2-0.5-1.2-1.3c0-0.8,0.6-1.3,1.2-1.3
			C85.1,123.8,85.6,124.3,85.6,125.1z M83.6,125.1c0,0.6,0.3,1,0.8,1c0.4,0,0.8-0.4,0.8-1c0-0.4-0.2-1-0.8-1
			C83.8,124.1,83.6,124.6,83.6,125.1z"/>
	</g>
	<g>
		<path d="M26.2,127.4h-1.9c-0.1,0-0.2,0-0.2,0.1c-0.1,0.1-0.1,0.1-0.1,0.2v1.9c0,0.1,0,0.2,0.1,0.2c0.1,0.1,0.1,0.1,0.2,0.1h1.9
			c0.1,0,0.2,0,0.2-0.1c0.1-0.1,0.1-0.1,0.1-0.2v-1.9c0-0.1,0-0.2-0.1-0.2C26.4,127.4,26.3,127.4,26.2,127.4L26.2,127.4z"/>
		<path d="M28.7,121.6c-0.2-0.4-0.5-0.7-0.8-1c-0.3-0.3-0.7-0.5-1.2-0.7c-0.4-0.2-0.9-0.2-1.3-0.2c-1.6,0-2.9,0.7-3.7,2.1
			c0,0.1-0.1,0.1,0,0.2c0,0.1,0.1,0.1,0.1,0.2l1.3,1c0.1,0,0.1,0.1,0.2,0.1c0.1,0,0.2,0,0.2-0.1c0.4-0.5,0.7-0.8,0.9-0.9
			c0.2-0.2,0.5-0.2,0.9-0.2c0.3,0,0.6,0.1,0.9,0.3c0.2,0.2,0.4,0.4,0.4,0.6c0,0.3-0.1,0.5-0.2,0.6s-0.4,0.3-0.7,0.4
			c-0.4,0.2-0.8,0.5-1.1,0.9c-0.3,0.4-0.5,0.8-0.5,1.3v0.4c0,0.1,0,0.2,0.1,0.3s0.1,0.1,0.2,0.1h1.9c0.1,0,0.2,0,0.2-0.1
			c0.1-0.1,0.1-0.2,0.1-0.3c0-0.1,0.1-0.3,0.2-0.5c0.1-0.2,0.3-0.4,0.5-0.5c0.2-0.1,0.4-0.2,0.5-0.3c0.1-0.1,0.3-0.2,0.5-0.3
			c0.2-0.2,0.3-0.3,0.4-0.5c0.1-0.2,0.2-0.4,0.3-0.6c0.1-0.3,0.1-0.5,0.1-0.8C29.1,122.5,29,122,28.7,121.6L28.7,121.6z"/>
	</g>
</g>
<g>
	<g class="st20">
		<path class="st19" d="M36,213.9c-0.2,0.1-0.5,0.2-0.9,0.2c-1,0-1.7-0.6-1.7-1.8c0-1.1,0.7-1.8,1.8-1.8c0.4,0,0.7,0.1,0.8,0.2
			l-0.1,0.4c-0.2-0.1-0.4-0.1-0.7-0.1c-0.8,0-1.4,0.5-1.4,1.4c0,0.9,0.5,1.4,1.3,1.4c0.3,0,0.6-0.1,0.7-0.1L36,213.9z"/>
		<path class="st19" d="M38.7,212.7c0,0.9-0.6,1.3-1.3,1.3c-0.7,0-1.2-0.5-1.2-1.3c0-0.8,0.6-1.3,1.2-1.3
			C38.3,211.4,38.7,211.9,38.7,212.7z M36.7,212.7c0,0.6,0.3,1,0.8,1c0.4,0,0.8-0.4,0.8-1c0-0.4-0.2-1-0.8-1S36.7,212.3,36.7,212.7z
			"/>
		<path class="st19" d="M39.3,212.2c0-0.3,0-0.5,0-0.7h0.4l0,0.4h0c0.1-0.2,0.4-0.5,0.8-0.5c0.3,0,0.9,0.2,0.9,1.1v1.5H41v-1.5
			c0-0.4-0.2-0.7-0.6-0.7c-0.3,0-0.5,0.2-0.6,0.5c0,0.1,0,0.1,0,0.2v1.5h-0.5V212.2z"/>
		<path class="st19" d="M42.7,210.7v0.7h0.7v0.3h-0.7v1.4c0,0.3,0.1,0.5,0.3,0.5c0.1,0,0.2,0,0.3,0l0,0.3c-0.1,0-0.2,0.1-0.4,0.1
			c-0.2,0-0.4-0.1-0.5-0.2c-0.1-0.1-0.2-0.4-0.2-0.7v-1.4h-0.4v-0.3h0.4v-0.6L42.7,210.7z"/>
		<path class="st19" d="M43.9,212.3c0-0.3,0-0.6,0-0.8h0.4l0,0.5h0c0.1-0.3,0.4-0.6,0.7-0.6c0.1,0,0.1,0,0.1,0v0.4c0,0-0.1,0-0.2,0
			c-0.3,0-0.6,0.2-0.6,0.6c0,0.1,0,0.1,0,0.2v1.3h-0.5V212.3z"/>
		<path class="st19" d="M46.2,210.8c0,0.2-0.1,0.3-0.3,0.3c-0.2,0-0.3-0.1-0.3-0.3c0-0.2,0.1-0.3,0.3-0.3
			C46,210.5,46.2,210.6,46.2,210.8z M45.6,214v-2.5h0.5v2.5H45.6z"/>
		<path class="st19" d="M46.8,214c0-0.2,0-0.4,0-0.7v-3h0.5v1.6h0c0.2-0.3,0.5-0.5,0.9-0.5c0.6,0,1.1,0.5,1.1,1.3
			c0,0.9-0.6,1.3-1.1,1.3c-0.4,0-0.7-0.1-0.8-0.5h0l0,0.4H46.8z M47.3,213c0,0.1,0,0.1,0,0.2c0.1,0.3,0.4,0.5,0.7,0.5
			c0.5,0,0.8-0.4,0.8-1c0-0.5-0.3-0.9-0.7-0.9c-0.3,0-0.6,0.2-0.7,0.6c0,0.1,0,0.1,0,0.2V213z"/>
		<path class="st19" d="M51.9,213.3c0,0.3,0,0.5,0,0.7h-0.4l0-0.4h0c-0.1,0.2-0.4,0.5-0.8,0.5c-0.4,0-0.9-0.2-0.9-1.1v-1.5h0.5v1.4
			c0,0.5,0.1,0.8,0.6,0.8c0.3,0,0.5-0.2,0.6-0.4c0-0.1,0-0.2,0-0.2v-1.5h0.5V213.3z"/>
		<path class="st19" d="M54.1,214l0-0.3h0c-0.1,0.2-0.4,0.4-0.8,0.4c-0.5,0-0.8-0.4-0.8-0.7c0-0.6,0.5-0.9,1.5-0.9v-0.1
			c0-0.2-0.1-0.6-0.6-0.6c-0.2,0-0.5,0.1-0.7,0.2l-0.1-0.3c0.2-0.1,0.5-0.2,0.8-0.2c0.8,0,1,0.5,1,1v0.9c0,0.2,0,0.4,0,0.6H54.1z
			 M54,212.7c-0.5,0-1.1,0.1-1.1,0.6c0,0.3,0.2,0.4,0.4,0.4c0.3,0,0.5-0.2,0.6-0.4c0,0,0-0.1,0-0.1V212.7z"/>
	</g>
	<g class="st20">
		<path class="st19" d="M24.7,217.5v-1.2c-0.8,0-1.7-0.3-2.1-0.5l0.4-1.5c0.5,0.3,1.3,0.6,2.1,0.6c0.7,0,1.2-0.3,1.2-0.8
			c0-0.5-0.4-0.8-1.3-1.1c-1.3-0.5-2.3-1.1-2.3-2.3c0-1.1,0.8-2,2.1-2.2v-1.2H26v1.1c0.8,0,1.4,0.2,1.8,0.4l-0.4,1.4
			c-0.3-0.1-0.9-0.4-1.8-0.4c-0.8,0-1.1,0.4-1.1,0.7c0,0.4,0.4,0.7,1.5,1.1c1.5,0.5,2.1,1.2,2.1,2.3c0,1.1-0.8,2.1-2.2,2.3v1.3H24.7
			z"/>
	</g>
</g>
<g>
	<g class="st20">
		<path class="st19" d="M36,195.7c-0.2,0.1-0.5,0.2-0.9,0.2c-1,0-1.7-0.6-1.7-1.8c0-1.1,0.7-1.8,1.8-1.8c0.4,0,0.7,0.1,0.8,0.2
			l-0.1,0.4c-0.2-0.1-0.4-0.1-0.7-0.1c-0.8,0-1.4,0.5-1.4,1.4c0,0.9,0.5,1.4,1.3,1.4c0.3,0,0.6-0.1,0.7-0.1L36,195.7z"/>
		<path class="st19" d="M38.7,194.5c0,0.9-0.6,1.3-1.3,1.3c-0.7,0-1.2-0.5-1.2-1.3c0-0.8,0.6-1.3,1.2-1.3
			C38.3,193.2,38.7,193.8,38.7,194.5z M36.7,194.6c0,0.6,0.3,1,0.8,1c0.4,0,0.8-0.4,0.8-1c0-0.4-0.2-1-0.8-1S36.7,194.1,36.7,194.6z
			"/>
		<path class="st19" d="M39.3,194c0-0.3,0-0.5,0-0.7h0.4l0,0.4h0c0.1-0.2,0.4-0.5,0.8-0.5c0.3,0,0.6,0.2,0.7,0.5h0
			c0.1-0.1,0.2-0.2,0.3-0.3c0.2-0.1,0.3-0.2,0.6-0.2c0.3,0,0.8,0.2,0.8,1.1v1.5h-0.4v-1.4c0-0.5-0.2-0.8-0.5-0.8
			c-0.3,0-0.5,0.2-0.5,0.4c0,0.1,0,0.1,0,0.2v1.6h-0.4v-1.5c0-0.4-0.2-0.7-0.5-0.7c-0.3,0-0.5,0.2-0.6,0.5c0,0.1,0,0.1,0,0.2v1.5
			h-0.4V194z"/>
		<path class="st19" d="M43.7,194.1c0-0.3,0-0.6,0-0.8h0.4l0,0.4h0c0.2-0.3,0.5-0.5,0.9-0.5c0.6,0,1.1,0.5,1.1,1.3
			c0,0.9-0.6,1.4-1.1,1.4c-0.3,0-0.6-0.1-0.8-0.4h0v1.4h-0.5V194.1z M44.1,194.8c0,0.1,0,0.1,0,0.2c0.1,0.3,0.4,0.5,0.7,0.5
			c0.5,0,0.8-0.4,0.8-1c0-0.5-0.3-0.9-0.7-0.9c-0.3,0-0.6,0.2-0.7,0.6c0,0.1,0,0.1,0,0.2V194.8z"/>
		<path class="st19" d="M48,195.8l0-0.3h0c-0.1,0.2-0.4,0.4-0.8,0.4c-0.5,0-0.8-0.4-0.8-0.7c0-0.6,0.5-0.9,1.5-0.9v-0.1
			c0-0.2-0.1-0.6-0.6-0.6c-0.2,0-0.5,0.1-0.7,0.2l-0.1-0.3c0.2-0.1,0.5-0.2,0.8-0.2c0.8,0,1,0.5,1,1v0.9c0,0.2,0,0.4,0,0.6H48z
			 M48,194.5c-0.5,0-1.1,0.1-1.1,0.6c0,0.3,0.2,0.4,0.4,0.4c0.3,0,0.5-0.2,0.6-0.4c0,0,0-0.1,0-0.1V194.5z"/>
		<path class="st19" d="M49.1,194.1c0-0.3,0-0.6,0-0.8h0.4l0,0.5h0c0.1-0.3,0.4-0.6,0.7-0.6c0.1,0,0.1,0,0.1,0v0.4c0,0-0.1,0-0.2,0
			c-0.3,0-0.6,0.2-0.6,0.6c0,0.1,0,0.1,0,0.2v1.3h-0.5V194.1z"/>
		<path class="st19" d="M51.5,192.6v0.7h0.7v0.3h-0.7v1.4c0,0.3,0.1,0.5,0.3,0.5c0.1,0,0.2,0,0.3,0l0,0.3c-0.1,0-0.2,0.1-0.4,0.1
			c-0.2,0-0.4-0.1-0.5-0.2c-0.1-0.1-0.2-0.4-0.2-0.7v-1.4h-0.4v-0.3h0.4v-0.6L51.5,192.6z"/>
		<path class="st19" d="M53.2,192.6c0,0.2-0.1,0.3-0.3,0.3c-0.2,0-0.3-0.1-0.3-0.3c0-0.2,0.1-0.3,0.3-0.3
			C53.1,192.3,53.2,192.4,53.2,192.6z M52.7,195.8v-2.5h0.5v2.5H52.7z"/>
		<path class="st19" d="M53.9,192.1h0.5v3.7h-0.5V192.1z"/>
		<path class="st19" d="M55.2,192.1h0.5v1.6h0c0.1-0.1,0.2-0.2,0.3-0.3c0.1-0.1,0.3-0.1,0.5-0.1c0.3,0,0.9,0.2,0.9,1.1v1.5h-0.5
			v-1.4c0-0.4-0.2-0.7-0.6-0.7c-0.3,0-0.5,0.2-0.6,0.5c0,0.1,0,0.1,0,0.2v1.5h-0.5V192.1z"/>
		<path class="st19" d="M58.3,194.6c0,0.6,0.4,0.9,0.9,0.9c0.3,0,0.5-0.1,0.7-0.1l0.1,0.3c-0.2,0.1-0.4,0.2-0.8,0.2
			c-0.8,0-1.2-0.5-1.2-1.3s0.4-1.4,1.2-1.4c0.8,0,1,0.7,1,1.2c0,0.1,0,0.2,0,0.2H58.3z M59.6,194.3c0-0.3-0.1-0.7-0.6-0.7
			c-0.5,0-0.7,0.4-0.7,0.7H59.6z"/>
	</g>
	<g>
		<path class="st21" d="M28.1,195.4c-0.7,0-1.3,0.4-1.7,0.9l-2.1-1.2c0.1-0.3,0.2-0.6,0.2-0.9c0-0.2,0-0.4-0.1-0.6l2.2-1.3
			c0.4,0.4,0.9,0.6,1.4,0.6c1.1,0,2-0.9,2-2s-0.9-2-2-2c-1.1,0-2,0.9-2,2c0,0.2,0,0.4,0.1,0.6l-2.2,1.3c-0.4-0.4-0.9-0.6-1.4-0.6
			c-1.1,0-2,0.9-2,2c0,1.1,0.9,2,2,2c0.4,0,0.9-0.2,1.2-0.4l2.4,1.4c0,0.1,0,0.1,0,0.2c0,1.1,0.9,2,2,2c1.1,0,2-0.9,2-2
			C30.1,196.3,29.2,195.4,28.1,195.4L28.1,195.4z M28.1,195.4"/>
	</g>
</g>
<g class="st20">
	<path class="st19" d="M22.7,178.6c0,1.6-1,2.5-2.2,2.5c-1.2,0-2.1-1-2.1-2.4c0-1.5,0.9-2.5,2.2-2.5
		C21.9,176.2,22.7,177.2,22.7,178.6z M19.1,178.7c0,1,0.5,1.9,1.5,1.9c1,0,1.5-0.9,1.5-1.9c0-0.9-0.5-1.9-1.5-1.9
		C19.6,176.7,19.1,177.6,19.1,178.7z"/>
	<path class="st19" d="M23.5,178.7c0-0.4,0-0.8,0-1.1H24l0,0.6h0c0.2-0.4,0.6-0.7,1.2-0.7c0.8,0,1.4,0.7,1.4,1.7
		c0,1.2-0.7,1.8-1.5,1.8c-0.4,0-0.8-0.2-1-0.5h0v1.8h-0.6V178.7z M24.1,179.6c0,0.1,0,0.2,0,0.3c0.1,0.4,0.5,0.7,0.9,0.7
		c0.6,0,1-0.5,1-1.3c0-0.7-0.4-1.3-1-1.3c-0.4,0-0.8,0.3-0.9,0.8c0,0.1,0,0.2,0,0.2V179.6z"/>
	<path class="st19" d="M29.9,180.9c-0.1,0.1-0.5,0.2-0.9,0.2l-0.2,0.3c0.3,0,0.5,0.2,0.5,0.5c0,0.4-0.3,0.6-0.7,0.6
		c-0.2,0-0.4,0-0.5-0.1l0.1-0.3c0.1,0.1,0.3,0.1,0.4,0.1c0.2,0,0.3-0.1,0.3-0.2c0-0.2-0.2-0.3-0.5-0.3l0.3-0.5
		c-0.9-0.1-1.4-0.8-1.4-1.7c0-1,0.7-1.8,1.8-1.8c0.4,0,0.7,0.1,0.8,0.2l-0.1,0.5c-0.1-0.1-0.4-0.2-0.7-0.2c-0.8,0-1.2,0.6-1.2,1.3
		c0,0.8,0.5,1.3,1.2,1.3c0.3,0,0.6-0.1,0.8-0.2L29.9,180.9z"/>
	<path class="st19" d="M33.6,179.3c0,1.2-0.9,1.8-1.7,1.8c-0.9,0-1.6-0.7-1.6-1.7c0-1.1,0.7-1.8,1.7-1.8
		C32.9,177.5,33.6,178.2,33.6,179.3z M30.9,179.3c0,0.7,0.4,1.3,1,1.3c0.6,0,1-0.5,1-1.3c0-0.6-0.3-1.3-1-1.3S30.9,178.7,30.9,179.3
		z M31.1,177c0-0.5,0.2-0.7,0.5-0.7c0.2,0,0.3,0.1,0.4,0.2c0.1,0.1,0.2,0.1,0.3,0.1c0.1,0,0.2-0.1,0.2-0.3h0.3
		c0,0.5-0.2,0.7-0.5,0.7c-0.1,0-0.3-0.1-0.4-0.1c-0.1-0.1-0.2-0.1-0.3-0.1c-0.1,0-0.2,0.1-0.2,0.3H31.1z"/>
	<path class="st19" d="M34.7,179.4c0,0.8,0.5,1.2,1.2,1.2c0.4,0,0.7-0.1,0.9-0.2l0.1,0.4c-0.2,0.1-0.6,0.2-1.1,0.2
		c-1,0-1.7-0.7-1.7-1.7s0.6-1.8,1.6-1.8c1.1,0,1.4,1,1.4,1.6c0,0.1,0,0.2,0,0.3H34.7z M36.5,179c0-0.4-0.2-1-0.8-1
		c-0.6,0-0.9,0.6-0.9,1H36.5z"/>
	<path class="st19" d="M37.8,180.4c0.2,0.1,0.5,0.2,0.8,0.2c0.4,0,0.7-0.2,0.7-0.5c0-0.3-0.2-0.5-0.6-0.6c-0.6-0.2-0.9-0.5-0.9-1
		c0-0.5,0.4-1,1.2-1c0.3,0,0.6,0.1,0.8,0.2l-0.2,0.4c-0.1-0.1-0.4-0.2-0.7-0.2c-0.4,0-0.6,0.2-0.6,0.5c0,0.3,0.2,0.4,0.6,0.6
		c0.6,0.2,0.9,0.5,0.9,1c0,0.6-0.5,1-1.3,1c-0.4,0-0.7-0.1-0.9-0.2L37.8,180.4z"/>
</g>
<g>
	<g class="st20">
		<path class="st19" d="M33.5,231.6c0.2,0.1,0.5,0.2,0.8,0.2c0.5,0,0.7-0.2,0.7-0.6c0-0.3-0.2-0.5-0.7-0.7c-0.6-0.2-0.9-0.5-0.9-1
			c0-0.5,0.5-1,1.1-1c0.4,0,0.6,0.1,0.8,0.2l-0.1,0.4c-0.1-0.1-0.3-0.2-0.7-0.2c-0.5,0-0.7,0.3-0.7,0.5c0,0.3,0.2,0.5,0.7,0.7
			c0.6,0.2,0.9,0.5,0.9,1c0,0.5-0.4,1-1.2,1c-0.3,0-0.7-0.1-0.9-0.2L33.5,231.6z"/>
		<path class="st19" d="M37.5,232.2l0-0.3h0c-0.1,0.2-0.4,0.4-0.8,0.4c-0.5,0-0.8-0.4-0.8-0.7c0-0.6,0.5-0.9,1.5-0.9v-0.1
			c0-0.2-0.1-0.6-0.6-0.6c-0.2,0-0.5,0.1-0.7,0.2l-0.1-0.3c0.2-0.1,0.5-0.2,0.8-0.2c0.8,0,1,0.5,1,1v0.9c0,0.2,0,0.4,0,0.6H37.5z
			 M37.4,230.9c-0.5,0-1.1,0.1-1.1,0.6c0,0.3,0.2,0.4,0.4,0.4c0.3,0,0.5-0.2,0.6-0.4c0,0,0-0.1,0-0.1V230.9z"/>
		<path class="st19" d="M39.1,228.9c0,0.2-0.1,0.3-0.3,0.3c-0.2,0-0.3-0.1-0.3-0.3c0-0.2,0.1-0.3,0.3-0.3
			C39,228.6,39.1,228.8,39.1,228.9z M38.6,232.2v-2.5h0.5v2.5H38.6z"/>
		<path class="st19" d="M39.8,230.4c0-0.3,0-0.6,0-0.8h0.4l0,0.5h0c0.1-0.3,0.4-0.6,0.7-0.6c0.1,0,0.1,0,0.1,0v0.4c0,0-0.1,0-0.2,0
			c-0.3,0-0.6,0.2-0.6,0.6c0,0.1,0,0.1,0,0.2v1.3h-0.5V230.4z"/>
	</g>
	<g>
		<g>
			<path d="M25.2,235.1h-2.7c-0.7,0-1.3-0.6-1.3-1.3v-6.4c0-0.7,0.6-1.3,1.3-1.3h2.7c0.2,0,0.3-0.1,0.3-0.3s-0.1-0.3-0.3-0.3h-2.7
				c-1,0-1.9,0.9-1.9,1.9v6.4c0,1,0.9,1.9,1.9,1.9h2.7c0.2,0,0.3-0.1,0.3-0.3S25.4,235.1,25.2,235.1L25.2,235.1z M25.2,235.1"/>
			<path d="M30,230.4l-1.9-1.9c-0.1-0.1-0.3-0.1-0.4,0c-0.1,0.1-0.1,0.3,0,0.4l1.4,1.4h-5.9c-0.2,0-0.3,0.1-0.3,0.3
				c0,0.2,0.1,0.3,0.3,0.3h5.9l-1.4,1.4c-0.1,0.1-0.1,0.3,0,0.4c0.1,0.1,0.1,0.1,0.2,0.1c0.1,0,0.1,0,0.2-0.1l1.9-1.9
				C30.1,230.7,30.1,230.5,30,230.4L30,230.4z M30,230.4"/>
		</g>
	</g>
</g>
<g>
	<g class="st20">
		<path class="st19" d="M36,164.1c-0.2,0.1-0.5,0.2-0.9,0.2c-1,0-1.7-0.6-1.7-1.8c0-1.1,0.7-1.8,1.8-1.8c0.4,0,0.7,0.1,0.8,0.2
			l-0.1,0.4c-0.2-0.1-0.4-0.1-0.7-0.1c-0.8,0-1.4,0.5-1.4,1.4c0,0.9,0.5,1.4,1.3,1.4c0.3,0,0.6-0.1,0.7-0.1L36,164.1z"/>
		<path class="st19" d="M38.7,162.9c0,0.9-0.6,1.3-1.3,1.3c-0.7,0-1.2-0.5-1.2-1.3c0-0.8,0.6-1.3,1.2-1.3
			C38.3,161.6,38.7,162.1,38.7,162.9z M36.7,162.9c0,0.6,0.3,1,0.8,1c0.4,0,0.8-0.4,0.8-1c0-0.4-0.2-1-0.8-1S36.7,162.5,36.7,162.9z
			"/>
		<path class="st19" d="M39.3,162.3c0-0.3,0-0.5,0-0.7h0.4l0,0.4h0c0.1-0.2,0.4-0.5,0.8-0.5c0.3,0,0.9,0.2,0.9,1.1v1.5H41v-1.5
			c0-0.4-0.2-0.7-0.6-0.7c-0.3,0-0.5,0.2-0.6,0.5c0,0.1,0,0.1,0,0.2v1.5h-0.5V162.3z"/>
		<path class="st19" d="M42.3,164.2V162h-0.4v-0.3h0.4v-0.1c0-0.7,0.4-1.1,1.1-1.1c0.2,0,0.5,0.1,0.6,0.2l-0.1,0.3
			c-0.1-0.1-0.3-0.1-0.5-0.1c-0.5,0-0.6,0.3-0.6,0.7v0.1h1.5v2.5h-0.5V162h-1v2.2H42.3z"/>
		<path class="st19" d="M47.1,161.7c0,0.2,0,0.4,0,0.7v1.5c0,0.6-0.1,0.9-0.4,1.2c-0.2,0.2-0.6,0.3-0.9,0.3c-0.3,0-0.6-0.1-0.8-0.2
			l0.1-0.3c0.2,0.1,0.4,0.2,0.7,0.2c0.5,0,0.8-0.2,0.8-0.9v-0.3h0c-0.1,0.2-0.4,0.4-0.8,0.4c-0.6,0-1.1-0.5-1.1-1.2
			c0-0.9,0.6-1.3,1.1-1.3c0.4,0,0.7,0.2,0.8,0.4h0l0-0.4H47.1z M46.6,162.7c0-0.1,0-0.1,0-0.2c-0.1-0.3-0.3-0.5-0.6-0.5
			c-0.4,0-0.7,0.4-0.7,1c0,0.5,0.2,0.9,0.7,0.9c0.3,0,0.5-0.2,0.6-0.5c0-0.1,0-0.2,0-0.2V162.7z"/>
		<path class="st19" d="M50,163.5c0,0.3,0,0.5,0,0.7h-0.4l0-0.4h0c-0.1,0.2-0.4,0.5-0.8,0.5c-0.4,0-0.9-0.2-0.9-1.1v-1.5h0.5v1.4
			c0,0.5,0.1,0.8,0.6,0.8c0.3,0,0.5-0.2,0.6-0.4c0-0.1,0-0.2,0-0.2v-1.5H50V163.5z"/>
		<path class="st19" d="M50.7,162.5c0-0.3,0-0.6,0-0.8h0.4l0,0.5h0c0.1-0.3,0.4-0.6,0.7-0.6c0.1,0,0.1,0,0.1,0v0.4c0,0-0.1,0-0.2,0
			c-0.3,0-0.6,0.2-0.6,0.6c0,0.1,0,0.1,0,0.2v1.3h-0.5V162.5z"/>
		<path class="st19" d="M53.8,164.2l0-0.3h0c-0.1,0.2-0.4,0.4-0.8,0.4c-0.5,0-0.8-0.4-0.8-0.7c0-0.6,0.5-0.9,1.5-0.9v-0.1
			c0-0.2-0.1-0.6-0.6-0.6c-0.2,0-0.5,0.1-0.7,0.2l-0.1-0.3c0.2-0.1,0.5-0.2,0.8-0.2c0.8,0,1,0.5,1,1v0.9c0,0.2,0,0.4,0,0.6H53.8z
			 M53.7,162.9c-0.5,0-1.1,0.1-1.1,0.6c0,0.3,0.2,0.4,0.4,0.4c0.3,0,0.5-0.2,0.6-0.4c0,0,0-0.1,0-0.1V162.9z"/>
		<path class="st19" d="M56.7,164.1c-0.1,0.1-0.3,0.1-0.7,0.1l-0.1,0.2c0.2,0,0.4,0.2,0.4,0.4c0,0.3-0.3,0.4-0.5,0.4
			c-0.1,0-0.3,0-0.4-0.1l0.1-0.2c0.1,0.1,0.2,0.1,0.3,0.1c0.1,0,0.2,0,0.2-0.2c0-0.1-0.2-0.2-0.4-0.2l0.2-0.4
			c-0.6-0.1-1.1-0.6-1.1-1.3c0-0.8,0.5-1.3,1.4-1.3c0.3,0,0.5,0.1,0.6,0.1l-0.1,0.4c-0.1-0.1-0.3-0.1-0.5-0.1c-0.6,0-0.9,0.4-0.9,1
			c0,0.6,0.4,0.9,0.9,0.9c0.3,0,0.4-0.1,0.6-0.1L56.7,164.1z"/>
		<path class="st19" d="M59.5,162.9c0,0.9-0.6,1.3-1.3,1.3c-0.7,0-1.2-0.5-1.2-1.3c0-0.8,0.6-1.3,1.2-1.3
			C59,161.6,59.5,162.1,59.5,162.9z M57.5,162.9c0,0.6,0.3,1,0.8,1c0.4,0,0.8-0.4,0.8-1c0-0.4-0.2-1-0.8-1S57.5,162.5,57.5,162.9z
			 M57.6,161.2c0-0.3,0.1-0.5,0.4-0.5c0.1,0,0.2,0,0.3,0.1c0.1,0,0.2,0.1,0.2,0.1c0.1,0,0.1,0,0.1-0.2h0.2c0,0.3-0.1,0.5-0.4,0.5
			c-0.1,0-0.2,0-0.3-0.1c-0.1-0.1-0.2-0.1-0.2-0.1c-0.1,0-0.1,0.1-0.1,0.2H57.6z"/>
		<path class="st19" d="M60.3,163c0,0.6,0.4,0.9,0.9,0.9c0.3,0,0.5-0.1,0.7-0.1l0.1,0.3c-0.2,0.1-0.4,0.2-0.8,0.2
			c-0.8,0-1.2-0.5-1.2-1.3s0.4-1.4,1.2-1.4c0.8,0,1,0.7,1,1.2c0,0.1,0,0.2,0,0.2H60.3z M61.7,162.7c0-0.3-0.1-0.7-0.6-0.7
			c-0.5,0-0.7,0.4-0.7,0.7H61.7z"/>
		<path class="st19" d="M62.6,163.7c0.1,0.1,0.4,0.2,0.6,0.2c0.3,0,0.5-0.2,0.5-0.4c0-0.2-0.1-0.3-0.5-0.5c-0.5-0.2-0.7-0.4-0.7-0.7
			c0-0.4,0.3-0.7,0.9-0.7c0.3,0,0.5,0.1,0.6,0.2l-0.1,0.3c-0.1-0.1-0.3-0.1-0.5-0.1c-0.3,0-0.4,0.2-0.4,0.3c0,0.2,0.2,0.3,0.5,0.4
			c0.4,0.2,0.7,0.4,0.7,0.8c0,0.4-0.3,0.8-0.9,0.8c-0.3,0-0.5-0.1-0.7-0.2L62.6,163.7z"/>
	</g>
	<g>
		<path d="M27.2,161.5l-0.3-0.6c0,0,0.6-1.4,0.6-1.4l-0.8-0.8c-0.1-0.1-1.4,0.6-1.4,0.6l-0.6-0.3c0,0-0.6-1.4-0.6-1.4h-1.1
			c-0.1,0-0.6,1.4-0.6,1.4l-0.6,0.3c0,0-1.4-0.6-1.5-0.6l-0.8,0.8c-0.1,0.1,0.6,1.4,0.6,1.4l-0.3,0.6c0,0-1.4,0.6-1.4,0.6v1.1
			c0,0.1,1.4,0.6,1.4,0.6l0.3,0.6c0,0-0.6,1.4-0.6,1.4l0.8,0.8c0.1,0.1,1.4-0.6,1.4-0.6l0.6,0.3c0,0,0.6,1.4,0.6,1.4H24
			c0.1,0,0.6-1.4,0.6-1.4l0.6-0.3c0,0,1.4,0.6,1.5,0.5l0.8-0.8c0.1-0.1-0.6-1.4-0.6-1.4l0.3-0.6c0,0,1.4-0.6,1.4-0.6V162
			C28.7,162,27.2,161.5,27.2,161.5L27.2,161.5z M23.4,164.3c-0.9,0-1.7-0.7-1.7-1.6s0.8-1.6,1.7-1.6c0.9,0,1.7,0.7,1.7,1.6
			S24.4,164.3,23.4,164.3L23.4,164.3z M23.4,164.3"/>
		<path d="M32,160.1l0-0.3c0,0,0.5-0.5,0.5-0.5l-0.2-0.5c0,0-0.7,0-0.7,0l-0.2-0.2c0,0,0-0.7,0-0.7l-0.5-0.2c0,0-0.5,0.5-0.5,0.5
			l-0.3,0c0,0-0.5-0.5-0.5-0.5l-0.5,0.2c0,0,0,0.7,0,0.7l-0.2,0.2c0,0-0.7,0-0.8,0l-0.2,0.5c0,0,0.5,0.5,0.5,0.5l0,0.3
			c0,0-0.5,0.5-0.5,0.5l0.2,0.5c0,0,0.7,0,0.7,0l0.2,0.2c0,0,0,0.7,0,0.7l0.5,0.2c0,0,0.5-0.5,0.5-0.5l0.3,0c0,0,0.5,0.5,0.5,0.5
			l0.5-0.2c0,0,0-0.7,0-0.7l0.2-0.2c0,0,0.7,0,0.8,0l0.2-0.5C32.5,160.7,32,160.1,32,160.1L32,160.1z M30.9,160.2
			c-0.2,0.4-0.6,0.6-1.1,0.4c-0.4-0.2-0.6-0.7-0.4-1c0.2-0.4,0.7-0.6,1.1-0.4C30.8,159.4,31,159.9,30.9,160.2L30.9,160.2z
			 M30.9,160.2"/>
	</g>
</g>
<g>
	<g class="st20">
		<path class="st19" d="M33.5,141.8c0.2,0,0.5-0.1,0.9-0.1c0.4,0,0.8,0.1,1,0.3c0.2,0.2,0.3,0.4,0.3,0.7c0,0.3-0.1,0.6-0.3,0.7
			c-0.2,0.3-0.6,0.4-1.1,0.4c-0.1,0-0.3,0-0.4,0v1.4h-0.5V141.8z M34,143.5c0.1,0,0.2,0,0.4,0c0.5,0,0.9-0.3,0.9-0.7
			c0-0.5-0.3-0.7-0.8-0.7c-0.2,0-0.3,0-0.4,0V143.5z"/>
		<path class="st19" d="M36.4,144.1c0,0.6,0.4,0.9,0.9,0.9c0.3,0,0.5-0.1,0.7-0.1l0.1,0.3c-0.2,0.1-0.4,0.2-0.8,0.2
			c-0.8,0-1.2-0.5-1.2-1.3c0-0.8,0.4-1.4,1.2-1.4c0.8,0,1,0.7,1,1.2c0,0.1,0,0.2,0,0.2H36.4z M37.7,143.8c0-0.3-0.1-0.7-0.6-0.7
			c-0.5,0-0.7,0.4-0.7,0.7H37.7z"/>
		<path class="st19" d="M38.8,143.5c0-0.3,0-0.6,0-0.8h0.4l0,0.5h0c0.1-0.3,0.4-0.6,0.7-0.6c0.1,0,0.1,0,0.1,0v0.4c0,0-0.1,0-0.2,0
			c-0.3,0-0.6,0.2-0.6,0.6c0,0.1,0,0.1,0,0.2v1.3h-0.5V143.5z"/>
		<path class="st19" d="M40.7,145.3v-2.2h-0.4v-0.3h0.4v-0.1c0-0.7,0.4-1.1,1.1-1.1c0.2,0,0.5,0.1,0.6,0.2l-0.1,0.3
			c-0.1-0.1-0.3-0.1-0.5-0.1c-0.5,0-0.6,0.3-0.6,0.7v0.1h1.5v2.5h-0.5v-2.2h-1v2.2H40.7z"/>
		<path class="st19" d="M43.3,141.6h0.5v3.7h-0.5V141.6z"/>
	</g>
	<g>
		<path d="M23.6,143c0.5,0.5,1.1,0.7,1.8,0.7c0.7,0,1.3-0.2,1.8-0.7c0.5-0.5,0.7-1.1,0.7-1.8c0-0.7-0.2-1.3-0.7-1.8
			c-0.5-0.5-1.1-0.7-1.8-0.7c-0.7,0-1.3,0.2-1.8,0.7c-0.5,0.5-0.7,1.1-0.7,1.8C22.8,141.9,23.1,142.5,23.6,143L23.6,143z M23.6,143"
			/>
		<path d="M29.9,145.7c0-0.3-0.1-0.5-0.2-0.7c-0.1-0.2-0.2-0.4-0.3-0.6c-0.1-0.2-0.3-0.4-0.4-0.5c-0.2-0.1-0.3-0.3-0.6-0.4
			c-0.2-0.1-0.5-0.1-0.7-0.1c0,0-0.1,0-0.3,0.1c-0.1,0.1-0.3,0.2-0.5,0.3c-0.2,0.1-0.4,0.2-0.7,0.3c-0.3,0.1-0.6,0.1-0.9,0.1
			c-0.3,0-0.6,0-0.9-0.1c-0.3-0.1-0.5-0.2-0.7-0.3c-0.2-0.1-0.3-0.2-0.5-0.3c-0.1-0.1-0.2-0.1-0.3-0.1c-0.3,0-0.5,0-0.7,0.1
			c-0.2,0.1-0.4,0.2-0.6,0.4c-0.2,0.1-0.3,0.3-0.4,0.5c-0.1,0.2-0.2,0.4-0.3,0.6c-0.1,0.2-0.1,0.5-0.2,0.7c0,0.3-0.1,0.5-0.1,0.7
			c0,0.2,0,0.5,0,0.7c0,0.5,0.2,1,0.5,1.3c0.3,0.3,0.8,0.5,1.3,0.5h5.8c0.5,0,1-0.2,1.3-0.5c0.3-0.3,0.5-0.7,0.5-1.3
			c0-0.2,0-0.5,0-0.7C30,146.2,30,146,29.9,145.7L29.9,145.7z M29.9,145.7"/>
	</g>
</g>
<rect x="7" y="172.5" width="116.7" height="0.7"/>
</svg>
