<?xml version="1.0" encoding="iso-8859-1"?>
<!-- Generator: Adobe Illustrator 21.0.2, SVG Export Plug-In . SVG Version: 6.00 Build 0)  -->
<svg version="1.1" id="Layer_1" xmlns="http://www.w3.org/2000/svg" xmlns:xlink="http://www.w3.org/1999/xlink" x="0px" y="0px"
	 width="148px" height="300px" viewBox="0 0 148 300" style="enable-background:new 0 0 148 300;" xml:space="preserve">
<g>
	<path style="fill:#FFFFFF;" d="M124.56,299.404H22.221c-11.72,0-21.31-9.589-21.31-21.31V21.906c0-11.72,9.589-21.31,21.31-21.31
		H124.56c11.72,0,21.31,9.589,21.31,21.31v256.188C145.87,289.814,136.28,299.404,124.56,299.404z"/>
	<path style="fill:#3DA849;" d="M117.118,6.581c-2.595,0-4.698,2.103-4.698,4.698c0,2.594,2.103,4.698,4.698,4.698
		c2.594,0,4.698-2.103,4.698-4.698C121.815,8.684,119.712,6.581,117.118,6.581z M117.118,12.916c-0.905,0-1.638-0.733-1.638-1.637
		s0.733-1.637,1.638-1.637c0.904,0,1.637,0.733,1.637,1.637S118.022,12.916,117.118,12.916z"/>
	<g>
		<path style="fill:#3DA849;" d="M29.664,7.034c2.341,0,4.245,1.904,4.245,4.245s-1.904,4.245-4.245,4.245s-4.245-1.904-4.245-4.245
			S27.323,7.034,29.664,7.034 M29.664,6.581c-2.594,0-4.698,2.103-4.698,4.698c0,2.594,2.103,4.698,4.698,4.698
			s4.698-2.103,4.698-4.698C34.361,8.684,32.258,6.581,29.664,6.581L29.664,6.581z"/>
		<circle style="fill:#3DA849;" cx="29.664" cy="11.279" r="1.637"/>
	</g>
	<circle style="fill:#3DA849;" cx="107.708" cy="295.053" r="1.46"/>
	<circle style="fill:#3DA849;" cx="39.073" cy="295.053" r="1.46"/>
	<path style="fill:#3DA849;" d="M88.491,14.481H58.289c-1.701,0-3.093-1.392-3.093-3.093v-0.219c0-1.701,1.392-3.093,3.093-3.093
		h30.202c1.701,0,3.093,1.392,3.093,3.093v0.219C91.584,13.089,90.192,14.481,88.491,14.481z"/>
	<path style="fill:#3DA849;" d="M77.706,295.62h-8.631c-1.907,0-3.467-1.56-3.467-3.467v-8.631c0-1.907,1.56-3.467,3.467-3.467
		h8.631c1.907,0,3.467,1.56,3.467,3.467v8.631C81.172,294.06,79.613,295.62,77.706,295.62z"/>
	<g>
		<path style="fill:#3DA849;" d="M124.56,300H22.221c-12.079,0-21.906-9.827-21.906-21.906V21.906C0.315,9.827,10.142,0,22.221,0
			H124.56c12.079,0,21.906,9.827,21.906,21.906v256.188C146.466,290.173,136.639,300,124.56,300z M22.221,1.193
			c-11.421,0-20.713,9.292-20.713,20.713v256.188c0,11.421,9.292,20.713,20.713,20.713H124.56c11.421,0,20.713-9.292,20.713-20.713
			V21.906c0-11.421-9.292-20.713-20.713-20.713C124.56,1.193,22.221,1.193,22.221,1.193z"/>
		<path style="fill:#3DA849;" d="M146.983,46.929h-0.252c-0.386,0-0.702-0.316-0.702-0.702v-9.738c0-0.386,0.316-0.702,0.702-0.702
			h0.252c0.386,0,0.702,0.316,0.702,0.702v9.738C147.685,46.613,147.369,46.929,146.983,46.929z"/>
		<path style="fill:#3DA849;" d="M146.983,95.976h-0.252c-0.386,0-0.702-0.316-0.702-0.702v-9.738c0-0.386,0.316-0.702,0.702-0.702
			h0.252c0.386,0,0.702,0.316,0.702,0.702v9.738C147.685,95.66,147.369,95.976,146.983,95.976z"/>
		<path style="fill:#3DA849;" d="M146.983,71.452h-0.252c-0.386,0-0.702-0.316-0.702-0.702v-9.738c0-0.386,0.316-0.702,0.702-0.702
			h0.252c0.386,0,0.702,0.316,0.702,0.702v9.738C147.685,71.137,147.369,71.452,146.983,71.452z"/>
	</g>
	<g>
		<rect x="6.837" y="24.412" style="fill:#394FA1;" width="133.704" height="16.62"/>
		<g>
			<rect x="11.094" y="28.824" style="fill:#FFFFFF;" width="10.362" height="1.337"/>
			<rect x="11.094" y="32.054" style="fill:#FFFFFF;" width="10.362" height="1.337"/>
			<rect x="11.094" y="35.284" style="fill:#FFFFFF;" width="10.362" height="1.337"/>
		</g>
		
			<text transform="matrix(1.0136 0 0 1 29.2061 34.8672)" style="fill:#FFFFFF; font-family:'MyriadPro-Bold'; font-size:7.3078px;">City Watch</text>
	</g>
	<g>
		<g>
			<path style="fill:#231F20;" d="M55.414,66.531v-1.758h1.304v1.758H55.414z M55.474,78.992v-10.23h1.185v10.23
				C56.659,78.992,55.474,78.992,55.474,78.992z"/>
			<path style="fill:#231F20;" d="M63.274,79.032c-0.145,0.026-0.335,0.072-0.573,0.138c-0.237,0.066-0.501,0.099-0.79,0.099
				c-0.592,0-1.044-0.148-1.353-0.445c-0.31-0.296-0.464-0.826-0.464-1.59V69.75h-1.442v-0.987h1.442v-2.844h1.185v2.844h1.915
				v0.987H61.28v7.011c0,0.25,0.006,0.467,0.02,0.651c0.013,0.185,0.052,0.336,0.118,0.454c0.066,0.118,0.168,0.204,0.306,0.257
				s0.332,0.079,0.583,0.079c0.158,0,0.319-0.013,0.484-0.04c0.164-0.026,0.326-0.059,0.484-0.099v0.969L63.274,79.032
				L63.274,79.032z"/>
			<path style="fill:#231F20;" d="M65.091,81.757c0.158,0.026,0.319,0.052,0.484,0.079c0.164,0.026,0.332,0.039,0.504,0.039
				c0.329,0,0.599-0.105,0.81-0.315c0.21-0.211,0.385-0.464,0.523-0.76c0.138-0.296,0.253-0.605,0.346-0.926
				c0.092-0.323,0.197-0.595,0.316-0.818l-3.97-10.293h1.323l3.278,8.788l3.278-8.788h1.284l-3.812,10.091
				c-0.237,0.645-0.464,1.225-0.681,1.738c-0.218,0.514-0.448,0.951-0.691,1.313c-0.244,0.362-0.514,0.638-0.81,0.83
				c-0.296,0.19-0.648,0.286-1.056,0.286c-0.211,0-0.412-0.013-0.603-0.039c-0.191-0.027-0.365-0.059-0.523-0.099V81.757z"/>
			<path style="fill:#14506A;" d="M96.888,73.028c0.223-0.026,0.49-0.065,0.8-0.118c0.309-0.052,0.563-0.125,0.76-0.218
				c0.197-0.092,0.319-0.247,0.365-0.464c0.046-0.217,0.069-0.418,0.069-0.602c0-0.605-0.194-1.103-0.583-1.491
				c-0.388-0.388-1.044-0.583-1.965-0.583c-0.408,0-0.783,0.037-1.126,0.109c-0.342,0.073-0.642,0.197-0.899,0.375
				s-0.467,0.415-0.632,0.711s-0.273,0.668-0.326,1.116h-1.204c0.039-0.605,0.178-1.122,0.415-1.55s0.543-0.776,0.918-1.046
				s0.81-0.467,1.303-0.593c0.494-0.125,1.017-0.188,1.57-0.188c0.513,0,0.997,0.056,1.452,0.168
				c0.454,0.112,0.849,0.29,1.185,0.533c0.336,0.244,0.599,0.57,0.79,0.978s0.287,0.908,0.287,1.501v5.569
				c0,0.461,0.082,0.754,0.247,0.879s0.497,0.096,0.998-0.089v0.928c-0.092,0.026-0.227,0.066-0.405,0.118
				c-0.178,0.052-0.353,0.079-0.523,0.079c-0.185,0-0.363-0.02-0.533-0.059c-0.197-0.027-0.355-0.089-0.474-0.188
				c-0.118-0.099-0.214-0.218-0.286-0.355c-0.072-0.138-0.122-0.29-0.148-0.454c-0.027-0.164-0.039-0.339-0.039-0.523
				c-0.5,0.553-1.074,0.975-1.718,1.264c-0.645,0.289-1.343,0.435-2.093,0.435c-0.448,0-0.879-0.06-1.293-0.178
				c-0.415-0.119-0.78-0.303-1.096-0.553s-0.566-0.556-0.751-0.919c-0.184-0.362-0.276-0.793-0.276-1.294
				c0-1.738,1.191-2.765,3.575-3.08L96.888,73.028z M98.882,73.621c-0.501,0.21-1.007,0.349-1.521,0.415s-1.027,0.118-1.54,0.158
				c-0.908,0.066-1.616,0.27-2.123,0.612s-0.76,0.862-0.76,1.56c0,0.316,0.062,0.589,0.188,0.819
				c0.125,0.231,0.289,0.422,0.494,0.573c0.204,0.152,0.441,0.264,0.711,0.336c0.27,0.073,0.543,0.109,0.819,0.109
				c0.474,0,0.935-0.06,1.383-0.178c0.447-0.119,0.846-0.3,1.195-0.543c0.349-0.244,0.629-0.553,0.839-0.928s0.316-0.82,0.316-1.333
				L98.882,73.621L98.882,73.621z"/>
			<path style="fill:#14506A;" d="M106.762,79.032c-0.145,0.026-0.335,0.072-0.573,0.138c-0.237,0.066-0.501,0.099-0.79,0.099
				c-0.592,0-1.044-0.148-1.353-0.445c-0.31-0.296-0.464-0.826-0.464-1.59V69.75h-1.442v-0.987h1.442v-2.844h1.185v2.844h1.915
				v0.987h-1.915v7.011c0,0.25,0.006,0.467,0.02,0.651c0.013,0.185,0.052,0.336,0.118,0.454c0.066,0.118,0.168,0.204,0.306,0.257
				s0.332,0.079,0.583,0.079c0.158,0,0.319-0.013,0.484-0.04c0.164-0.026,0.326-0.059,0.484-0.099V79.032z"/>
			<path style="fill:#14506A;" d="M115.906,71.982c-0.211-0.763-0.573-1.359-1.086-1.787c-0.514-0.428-1.165-0.642-1.955-0.642
				c-0.606,0-1.126,0.125-1.56,0.375s-0.79,0.583-1.066,0.998s-0.48,0.882-0.612,1.402c-0.132,0.521-0.197,1.044-0.197,1.57
				c0,0.54,0.062,1.066,0.188,1.58c0.125,0.514,0.326,0.974,0.602,1.382c0.277,0.408,0.632,0.734,1.066,0.978
				c0.435,0.244,0.961,0.365,1.58,0.365c0.882,0,1.59-0.244,2.123-0.731c0.533-0.487,0.872-1.158,1.017-2.014h1.264
				c-0.106,0.566-0.273,1.083-0.504,1.55c-0.231,0.467-0.527,0.869-0.889,1.205s-0.793,0.596-1.294,0.78s-1.073,0.277-1.718,0.277
				c-0.817,0-1.521-0.138-2.113-0.415c-0.592-0.276-1.08-0.655-1.461-1.135c-0.382-0.48-0.665-1.05-0.849-1.708
				c-0.185-0.658-0.277-1.363-0.277-2.113c0-0.711,0.102-1.392,0.306-2.044s0.504-1.228,0.899-1.728
				c0.395-0.5,0.885-0.899,1.471-1.195s1.26-0.445,2.024-0.445c1.185,0,2.143,0.283,2.874,0.849s1.188,1.448,1.372,2.647
				L115.906,71.982L115.906,71.982z"/>
			<path style="fill:#14506A;" d="M119.638,78.992V64.773h1.185v5.411c0.474-0.5,0.964-0.908,1.471-1.225
				c0.507-0.316,1.116-0.474,1.827-0.474c0.632,0,1.218,0.109,1.758,0.326c0.54,0.217,0.994,0.596,1.363,1.135
				c0.25,0.369,0.398,0.748,0.445,1.136c0.046,0.388,0.069,0.793,0.069,1.214v6.695h-1.185v-6.675c0-0.921-0.204-1.612-0.612-2.074
				c-0.408-0.461-1.086-0.691-2.034-0.691c-0.369,0-0.704,0.056-1.007,0.168c-0.303,0.112-0.576,0.26-0.82,0.445
				c-0.244,0.184-0.451,0.395-0.622,0.632c-0.171,0.237-0.303,0.487-0.395,0.75c-0.119,0.329-0.191,0.645-0.217,0.948
				c-0.027,0.303-0.04,0.632-0.04,0.988v5.51C120.824,78.992,119.638,78.992,119.638,78.992z"/>
			<path style="fill:#231F20;" d="M52.762,69.286c-0.264-1.155-0.753-1.978-1.469-2.467c-0.716-0.49-1.651-0.735-2.807-0.735
				c-0.816,0-1.519,0.163-2.109,0.49c-0.59,0.327-1.077,0.766-1.46,1.319s-0.666,1.19-0.848,1.912s-0.273,1.485-0.273,2.288
				c0,0.754,0.078,1.495,0.235,2.223s0.417,1.378,0.782,1.949c0.364,0.572,0.854,1.033,1.469,1.384
				c0.615,0.352,1.387,0.528,2.317,0.528c0.577,0,1.105-0.094,1.582-0.283c0.477-0.188,0.895-0.449,1.253-0.782
				c0.358-0.332,0.659-0.725,0.904-1.177s0.43-0.948,0.556-1.488h1.337c-0.151,0.653-0.37,1.272-0.659,1.855
				c-0.289,0.584-0.669,1.096-1.139,1.535c-0.471,0.439-1.042,0.788-1.714,1.045c-0.672,0.257-1.46,0.386-2.364,0.386
				c-1.042,0-1.934-0.191-2.675-0.575c-0.741-0.383-1.347-0.901-1.818-1.554s-0.813-1.409-1.026-2.269
				c-0.214-0.86-0.32-1.774-0.32-2.741c0-1.293,0.16-2.392,0.48-3.296s0.763-1.642,1.328-2.213s1.23-0.986,1.996-1.243
				c0.766-0.257,1.601-0.386,2.505-0.386c0.69,0,1.334,0.091,1.931,0.273c0.596,0.182,1.124,0.455,1.582,0.819
				s0.835,0.813,1.13,1.347c0.295,0.534,0.499,1.152,0.612,1.855L52.762,69.286L52.762,69.286z"/>
			<path style="fill:#14506A;" d="M86.157,77.184h0.038l2.957-11.753h1.318l-3.56,13.561h-1.413l-3.146-11.979h-0.038l-3.146,11.979
				h-1.413l-3.503-13.561h1.281l2.92,11.753h0.038l3.145-11.753h1.432L86.157,77.184z"/>
		</g>
		<g>
			<polygon style="fill:#14506A;" points="39.116,52.781 36.257,53.882 36.257,60.351 39.116,60.351 			"/>
			<polygon style="fill:#3D6E8E;" points="19.831,52.781 22.69,53.882 22.69,60.351 19.831,60.351 			"/>
			<path style="fill:#14506A;" d="M25.418,51.071v6.634l-5.587,1.774V52.78l-5.235,1.579v8.259l2.801,2.801v15.55l12.076,2.052
				V50.015L25.418,51.071z M21.283,76.068c0.307,0.715,0.713,1.083,1.226,1.091c0.549,0.008,0.986-0.32,1.298-0.998
				c0.176-0.371,0.325-0.93,0.446-1.678l1.903-0.162c-0.185,1.682-0.63,3.03-1.312,4.02c-0.65,0.945-1.434,1.348-2.328,1.249
				c-1.025-0.114-1.771-0.775-2.28-1.949c-0.488-1.129-0.718-2.633-0.706-4.548c0.013-2.07,0.297-3.755,0.872-5.105
				c0.524-1.232,1.22-2.058,2.118-2.458c1.31-0.583,2.352-0.24,3.048,1.127c0.399,0.801,0.616,1.685,0.641,2.638l-1.92,0.496
				c-0.109-0.657-0.25-1.131-0.422-1.424c-0.302-0.511-0.74-0.66-1.302-0.463c-0.547,0.192-0.965,0.734-1.265,1.617
				c-0.293,0.861-0.441,1.988-0.45,3.397C20.841,74.325,20.984,75.371,21.283,76.068z"/>
			<path style="fill:#3D6E8E;" d="M39.116,52.781v6.699l-5.587-1.774v-6.634l-4.056-1.056v33.006l12.076-2.052V65.42l2.801-2.801
				V54.36L39.116,52.781z M39.153,79.37l-1.279,0.126l-0.796-7.826l-0.242-2.702l-0.281,2.583l-1,8.173l-1.688,0.166l-2.799-16.611
				l2.313,1.062l1.162,9.107l0.237,2.392l0.262-2.274l0.978-8.013l1.63,0.748l0.748,7.683l0.183,2.048l0.207-1.916l0.848-6.904
				l1.169,0.537L39.153,79.37z"/>
		</g>
	</g>
	<text transform="matrix(1 0 0 1 50.1863 215.3142)" style="fill:#595A5A; font-family:'MyriadPro-Regular'; font-size:8.5617px;">Powered by</text>
	<g>
		<path style="fill:#221F1F;" d="M65.182,231.8c-0.554,0-1.074-0.108-1.56-0.323c-0.486-0.214-0.913-0.508-1.28-0.881
			s-0.655-0.809-0.865-1.306c-0.209-0.497-0.313-1.029-0.313-1.594c0-0.565,0.104-1.097,0.313-1.594s0.497-0.933,0.865-1.306
			s0.794-0.667,1.28-0.882c0.486-0.214,1.006-0.322,1.56-0.322s1.074,0.108,1.56,0.322c0.486,0.215,0.913,0.509,1.28,0.882
			s0.655,0.809,0.865,1.306c0.209,0.497,0.314,1.029,0.314,1.594c0,0.565-0.105,1.097-0.314,1.594s-0.497,0.932-0.865,1.306
			c-0.368,0.373-0.795,0.667-1.28,0.881C66.256,231.692,65.736,231.8,65.182,231.8z M65.182,231.105
			c0.452,0,0.876-0.091,1.272-0.271c0.396-0.181,0.737-0.423,1.026-0.729c0.288-0.305,0.515-0.664,0.679-1.077
			c0.163-0.413,0.246-0.856,0.246-1.331c0-0.453-0.085-0.885-0.254-1.297c-0.17-0.413-0.399-0.777-0.687-1.094
			c-0.288-0.316-0.63-0.565-1.026-0.746s-0.814-0.271-1.255-0.271c-0.464,0-0.89,0.09-1.28,0.271s-0.729,0.424-1.017,0.729
			c-0.288,0.305-0.515,0.664-0.678,1.077c-0.164,0.413-0.246,0.856-0.246,1.332c0,0.464,0.084,0.899,0.255,1.306
			c0.169,0.407,0.398,0.769,0.687,1.085c0.288,0.317,0.63,0.565,1.026,0.746C64.323,231.014,64.741,231.105,65.182,231.105z"/>
		<path style="fill:#221F1F;" d="M69.975,225.393c0-0.223,0-0.415,0-0.573c0-0.159,0-0.301,0-0.424s-0.003-0.241-0.009-0.353
			c-0.006-0.111-0.015-0.232-0.026-0.361h0.741c0.012,0.129,0.02,0.253,0.027,0.371c0.006,0.117,0.011,0.244,0.018,0.379
			c0.005,0.135,0.009,0.286,0.009,0.45c0,0.165,0,0.359,0,0.582c0.094-0.176,0.22-0.373,0.38-0.591
			c0.158-0.218,0.362-0.421,0.609-0.609c0.247-0.187,0.534-0.346,0.864-0.477c0.33-0.128,0.712-0.193,1.148-0.193
			c0.259,0,0.482,0.041,0.671,0.124l-0.23,0.758c-0.082-0.036-0.179-0.059-0.291-0.071c-0.112-0.011-0.215-0.018-0.309-0.018
			c-0.424,0-0.806,0.095-1.147,0.282c-0.341,0.188-0.636,0.436-0.883,0.742c-0.246,0.306-0.438,0.656-0.574,1.05
			c-0.135,0.394-0.203,0.792-0.203,1.192v4.148h-0.794L69.975,225.393L69.975,225.393z"/>
		<polygon style="fill:#221F1F;" points="57.166,221.669 56.815,221.669 51.018,225.13 45.286,221.708 45.214,221.669 
			44.862,221.669 44.862,231.038 47.854,232.748 47.854,227.825 51.018,230.319 54.181,227.825 54.181,232.747 57.173,231.038 
			57.173,221.945 		"/>
		
			<linearGradient id="SVGID_1_" gradientUnits="userSpaceOnUse" x1="51.018" y1="-38.7495" x2="60.322" y2="-38.7495" gradientTransform="matrix(1 0 0 1 0 270)">
			<stop  offset="0" style="stop-color:#B74724"/>
			<stop  offset="1" style="stop-color:#F16222"/>
		</linearGradient>
		<polygon style="fill:url(#SVGID_1_);" points="56.898,230.877 54.457,232.271 54.457,227.255 51.018,229.966 51.018,233.282 
			54.457,235.04 54.851,235.246 60.322,232.057 		"/>
		
			<linearGradient id="SVGID_2_" gradientUnits="userSpaceOnUse" x1="51.018" y1="-48.4775" x2="60.322" y2="-48.4775" gradientTransform="matrix(1 0 0 1 0 270)">
			<stop  offset="0" style="stop-color:#B74724"/>
			<stop  offset="1" style="stop-color:#F16222"/>
		</linearGradient>
		<polygon style="fill:url(#SVGID_2_);" points="51.018,220.539 56.403,217.595 60.322,219.894 51.018,225.45 		"/>
		
			<linearGradient id="SVGID_3_" gradientUnits="userSpaceOnUse" x1="58.61" y1="-37.943" x2="58.61" y2="-50.106" gradientTransform="matrix(1 0 0 1 0 270)">
			<stop  offset="0" style="stop-color:#B74724"/>
			<stop  offset="1" style="stop-color:#F16222"/>
		</linearGradient>
		<polygon style="fill:url(#SVGID_3_);" points="56.898,230.877 60.322,232.057 60.322,219.894 56.898,221.939 		"/>
		
			<linearGradient id="SVGID_4_" gradientUnits="userSpaceOnUse" x1="-81.087" y1="-38.7495" x2="-90.392" y2="-38.7495" gradientTransform="matrix(-1 0 0 1 -39.374 270)">
			<stop  offset="0" style="stop-color:#B74724"/>
			<stop  offset="0.995" style="stop-color:#F16222"/>
		</linearGradient>
		<polygon style="fill:url(#SVGID_4_);" points="45.138,230.877 47.579,232.271 47.579,227.255 51.018,229.966 51.018,233.282 
			47.579,235.04 47.185,235.246 41.713,232.057 		"/>
		
			<linearGradient id="SVGID_5_" gradientUnits="userSpaceOnUse" x1="46.3655" y1="-44.55" x2="46.3655" y2="-52.405" gradientTransform="matrix(1 0 0 1 0 270)">
			<stop  offset="0" style="stop-color:#F16222"/>
			<stop  offset="0.8778" style="stop-color:#B74724"/>
		</linearGradient>
		<polygon style="fill:url(#SVGID_5_);" points="51.018,220.539 45.633,217.595 41.713,219.894 51.018,225.45 		"/>
		
			<linearGradient id="SVGID_6_" gradientUnits="userSpaceOnUse" x1="43.4255" y1="-37.943" x2="43.4255" y2="-50.106" gradientTransform="matrix(1 0 0 1 0 270)">
			<stop  offset="0" style="stop-color:#F16222"/>
			<stop  offset="1" style="stop-color:#B74724"/>
		</linearGradient>
		<polygon style="fill:url(#SVGID_6_);" points="45.138,230.877 41.713,232.057 41.713,219.894 45.138,221.939 		"/>
		<path style="fill:#221F1F;" d="M81.37,230.427c-0.338,0.43-0.799,0.766-1.382,1.009c-0.582,0.243-1.178,0.365-1.788,0.365
			c-0.577,0-1.112-0.1-1.603-0.296c-0.492-0.198-0.913-0.478-1.263-0.84s-0.625-0.795-0.823-1.297
			c-0.197-0.503-0.297-1.06-0.297-1.67c0-0.565,0.094-1.096,0.28-1.594c0.187-0.497,0.444-0.932,0.771-1.306
			c0.328-0.373,0.724-0.667,1.187-0.882c0.463-0.214,0.972-0.322,1.526-0.322c0.531,0,1.026,0.094,1.484,0.28
			c0.457,0.186,0.854,0.461,1.188,0.822c0.333,0.362,0.594,0.811,0.78,1.348c0.185,0.538,0.279,1.157,0.279,1.857h-6.647
			c0.011,0.441,0.096,0.857,0.254,1.247c0.158,0.389,0.373,0.729,0.645,1.017c0.271,0.289,0.597,0.514,0.975,0.678
			c0.378,0.164,0.799,0.246,1.263,0.246c0.237,0,0.483-0.026,0.738-0.077c0.254-0.051,0.5-0.127,0.737-0.229
			c0.238-0.102,0.456-0.221,0.654-0.356c0.198-0.136,0.364-0.288,0.5-0.458L81.37,230.427z M80.878,227.239
			c-0.1-0.961-0.406-1.69-0.915-2.188c-0.509-0.497-1.17-0.746-1.984-0.746c-0.418,0-0.8,0.077-1.144,0.229
			c-0.345,0.153-0.642,0.362-0.89,0.628c-0.249,0.266-0.449,0.576-0.602,0.932s-0.24,0.737-0.263,1.145L80.878,227.239
			L80.878,227.239z"/>
		<path style="fill:#CE5928;" d="M82.829,224.317h-1.6v-0.73h1.6v-2.645h0.784v2.645h2.645v0.73h-2.645v4.629
			c0,0.476,0.034,0.856,0.103,1.14c0.07,0.285,0.171,0.499,0.304,0.644c0.134,0.146,0.289,0.241,0.462,0.288
			c0.173,0.046,0.365,0.07,0.574,0.07c0.29,0,0.54-0.052,0.748-0.157c0.209-0.105,0.419-0.284,0.627-0.539l0.488,0.47
			c-0.233,0.302-0.497,0.533-0.793,0.696c-0.295,0.162-0.681,0.244-1.156,0.244c-0.315,0-0.604-0.038-0.871-0.113
			c-0.267-0.076-0.495-0.215-0.679-0.418c-0.186-0.203-0.331-0.475-0.435-0.818c-0.105-0.341-0.157-0.779-0.157-1.313v-4.823H82.829
			z"/>
		<path style="fill:#CE5928;" d="M87.354,224.317h-1.602v-0.73h1.602v-2.645h0.783v2.645h2.646v0.73h-2.646v4.629
			c0,0.476,0.034,0.856,0.103,1.14c0.071,0.285,0.172,0.499,0.305,0.644c0.134,0.146,0.288,0.241,0.462,0.288
			c0.173,0.046,0.365,0.07,0.574,0.07c0.29,0,0.539-0.052,0.748-0.157s0.418-0.284,0.627-0.539l0.488,0.47
			c-0.234,0.302-0.498,0.533-0.793,0.696c-0.296,0.162-0.682,0.244-1.156,0.244c-0.315,0-0.605-0.038-0.872-0.113
			c-0.266-0.076-0.493-0.215-0.678-0.418c-0.186-0.203-0.331-0.475-0.435-0.818c-0.106-0.341-0.157-0.779-0.157-1.313v-4.823H87.354
			z"/>
		<path style="fill:#CE5928;" d="M100.638,230.444c-0.327,0.395-0.753,0.72-1.28,0.975c-0.525,0.254-1.127,0.381-1.806,0.381
			c-0.565,0-1.088-0.105-1.569-0.314s-0.896-0.497-1.247-0.865c-0.35-0.367-0.622-0.803-0.813-1.306
			c-0.193-0.503-0.289-1.043-0.289-1.619s0.099-1.116,0.297-1.619c0.197-0.503,0.472-0.938,0.823-1.306
			c0.35-0.367,0.765-0.656,1.245-0.865c0.48-0.21,0.998-0.314,1.551-0.314c0.69,0,1.274,0.122,1.754,0.365
			c0.482,0.243,0.891,0.58,1.23,1.009l-0.576,0.441c-0.26-0.339-0.584-0.608-0.974-0.805c-0.391-0.198-0.868-0.297-1.434-0.297
			c-0.453,0-0.867,0.091-1.245,0.272c-0.379,0.181-0.708,0.424-0.984,0.729c-0.278,0.305-0.491,0.664-0.645,1.077
			c-0.153,0.413-0.228,0.851-0.228,1.314c0,0.464,0.08,0.902,0.237,1.314c0.157,0.413,0.376,0.772,0.653,1.077
			s0.604,0.548,0.984,0.729c0.379,0.181,0.789,0.271,1.229,0.271c0.566,0,1.065-0.102,1.502-0.305
			c0.434-0.204,0.781-0.475,1.041-0.814L100.638,230.444z"/>
		<g>
			<rect x="92.058" y="223.593" style="fill:#CE5928;" width="0.802" height="8.207"/>
			<g>
				<rect x="92.195" y="220.959" style="fill:#CE5928;" width="0.802" height="0.803"/>
				<polygon style="fill:#221F1F;" points="91.92,220.855 92.195,220.959 92.195,221.762 91.92,221.658 				"/>
				<polyline style="fill:#221F1F;" points="92.996,220.959 92.723,220.855 91.92,220.855 92.195,220.959 				"/>
			</g>
		</g>
	</g>
	<rect x="14.469" y="126.78" style="fill:#E6E7E8;" width="113.413" height="17.195"/>
	<text transform="matrix(1 0 0 1 39.2634 137.5222)" style="fill:#231F20; font-family:'MyriadPro-Regular'; font-size:7.3078px;">O QUE EST&#xC1; ACONTECENDO</text>
	<rect x="14.469" y="146.031" style="fill:#E6E7E8;" width="113.413" height="17.195"/>
	<text transform="matrix(1 0 0 1 37.7576 156.7722)" style="fill:#231F20; font-family:'MyriadPro-Regular'; font-size:7.3078px;">COMPARTILHE EXPERI&#xCA;NCIAS</text>
	<rect x="14.469" y="107.529" style="fill:#E6E7E8;" width="113.413" height="17.195"/>
	<text transform="matrix(1 0 0 1 45.0368 118.2712)" style="fill:#231F20; font-family:'MyriadPro-Regular'; font-size:7.3078px;">PROCURE EXPERI&#xCA;NCIAS</text>
	<g>
		<circle style="fill:#14506A;" cx="121.567" cy="248.323" r="10.175"/>
		<g>
			<path style="fill:#FFFFFF;" d="M122.027,244.495v3.381h3.252v0.863h-3.252v3.41h-0.921v-3.41h-3.252v-0.863h3.252v-3.381H122.027
				z"/>
		</g>
	</g>
	<g>
		<g>
			<path d="M25.443,160.901l-0.825,0.311c-0.226,0.085-0.48-0.003-0.605-0.209l-1.644-2.72c-0.162-0.268-0.041-0.617,0.252-0.727
				l0.825-0.311c0.226-0.085,0.48,0.003,0.605,0.209l1.644,2.72C25.856,160.442,25.735,160.791,25.443,160.901z"/>
			<polygon points="29.773,156.957 24.93,157.3 23.411,153.279 27.273,150.335 			"/>
			<g>
				<polygon points="24.175,155.302 24.93,157.3 29.773,156.957 28.527,153.658 				"/>
				<path d="M29.877,157.373L29.877,157.373c-0.175,0.066-0.37-0.022-0.436-0.197l-2.563-6.787c-0.066-0.175,0.022-0.37,0.197-0.436
					l0,0c0.175-0.066,0.37,0.022,0.436,0.197l2.563,6.787C30.14,157.112,30.052,157.307,29.877,157.373z"/>
			</g>
			<path d="M28.164,153.795l1.277,3.381c0.066,0.175,0.261,0.263,0.436,0.197c0.175-0.066,0.263-0.261,0.197-0.436l-1.277-3.381
				L28.164,153.795z"/>
			<path d="M20.872,158.509l1.363-0.515l-1.305-3.455l-1.363,0.515c-0.472,0.178-0.71,0.705-0.532,1.177l0.659,1.746
				C19.873,158.449,20.4,158.687,20.872,158.509z"/>
			<path d="M19.369,157.116l0.325,0.861c0.178,0.472,0.705,0.71,1.177,0.532l1.363-0.515l-0.648-1.715L19.369,157.116z"/>
			<path d="M24.93,157.3l-2.648,1c-0.204,0.077-0.431-0.026-0.508-0.229l-1.24-3.285c-0.077-0.204,0.026-0.431,0.229-0.508l2.648-1
				L24.93,157.3z"/>
			<path d="M21.159,156.441l0.616,1.63c0.077,0.204,0.304,0.306,0.508,0.229l2.648-1l-0.755-1.999L21.159,156.441z"/>
		</g>
		<path d="M30.247,154.155l-0.772-0.356c0.064-0.226,0.062-0.473-0.026-0.71c-0.096-0.261-0.279-0.466-0.504-0.596l0.353-0.766
			c0.42,0.221,0.765,0.59,0.942,1.07C30.409,153.253,30.399,153.731,30.247,154.155L30.247,154.155z"/>
		<path d="M31.248,154.617c0.268-0.682,0.298-1.461,0.025-2.2c-0.282-0.764-0.837-1.35-1.513-1.689l0.353-0.767
			c0.873,0.43,1.589,1.181,1.952,2.164c0.354,0.958,0.309,1.968-0.049,2.846L31.248,154.617z"/>
		<path d="M33.852,155.802l-0.766-0.353c0.479-1.149,0.543-2.474,0.079-3.731c-0.473-1.282-1.41-2.26-2.551-2.817l0.353-0.766
			c1.337,0.648,2.436,1.79,2.99,3.29C34.502,152.901,34.421,154.457,33.852,155.802L33.852,155.802z"/>
	</g>
	<g>
		<path d="M33.346,121.917l-2.713-2.713c0.022-0.087,0.022-0.184,0.022-0.282c0-0.836-0.684-1.519-1.52-1.519
			s-1.519,0.684-1.519,1.519s0.684,1.519,1.519,1.519c0.098,0,0.195-0.011,0.282-0.022l2.702,2.713c0.336,0.337,0.879,0.337,1.216,0
			C33.682,122.796,33.682,122.253,33.346,121.917L33.346,121.917z M33.346,121.917l-2.713-2.713
			c0.022-0.087,0.022-0.184,0.022-0.282c0-0.836-0.684-1.519-1.52-1.519s-1.519,0.684-1.519,1.519s0.684,1.519,1.519,1.519
			c0.098,0,0.195-0.011,0.282-0.022l2.702,2.713c0.336,0.337,0.879,0.337,1.216,0C33.682,122.796,33.682,122.253,33.346,121.917
			L33.346,121.917z"/>
		<path d="M33.487,122.948c0.184-0.326,0.141-0.749-0.141-1.031l-2.702-2.713c0.022-0.087,0.022-0.184,0.022-0.282
			c0-0.836-0.684-1.519-1.519-1.519c-0.336,0-0.64,0.108-0.901,0.293c-0.184,0.26-0.293,0.575-0.293,0.912
			c0,0.836,0.684,1.519,1.519,1.519c0.098,0,0.195-0.011,0.282-0.022l2.702,2.713C32.738,123.089,33.161,123.132,33.487,122.948
			L33.487,122.948z"/>
		<path d="M25.347,109.49c-3.115,0-5.644,2.529-5.644,5.644s2.529,5.644,5.644,5.644s5.644-2.529,5.644-5.644
			C30.991,112.019,28.462,109.49,25.347,109.49L25.347,109.49z M25.347,119.583c-2.453,0-4.45-1.997-4.45-4.45
			c0-2.453,1.997-4.45,4.45-4.45s4.45,1.997,4.45,4.45S27.8,119.583,25.347,119.583L25.347,119.583z M25.347,109.49
			c-3.115,0-5.644,2.529-5.644,5.644s2.529,5.644,5.644,5.644s5.644-2.529,5.644-5.644C30.991,112.019,28.462,109.49,25.347,109.49
			L25.347,109.49z M25.347,119.583c-2.453,0-4.45-1.997-4.45-4.45c0-2.453,1.997-4.45,4.45-4.45s4.45,1.997,4.45,4.45
			S27.8,119.583,25.347,119.583L25.347,119.583z"/>
	</g>
	<g>
		<path d="M27.839,138.92H25.15c-0.119,0-0.224,0.045-0.314,0.134c-0.089,0.09-0.134,0.194-0.134,0.314v2.689
			c0,0.119,0.045,0.224,0.134,0.314c0.09,0.089,0.194,0.134,0.314,0.134h2.689c0.12,0,0.224-0.044,0.314-0.134
			c0.09-0.089,0.134-0.194,0.134-0.314v-2.689c0-0.12-0.044-0.224-0.134-0.314S27.958,138.92,27.839,138.92L27.839,138.92z"/>
		<path d="M31.368,130.87c-0.306-0.565-0.702-1.04-1.188-1.429c-0.485-0.388-1.031-0.698-1.636-0.93s-1.206-0.347-1.804-0.347
			c-2.271,0-4.004,0.993-5.199,2.98c-0.06,0.097-0.08,0.202-0.062,0.314c0.019,0.111,0.077,0.205,0.174,0.28l1.837,1.4
			c0.097,0.06,0.191,0.09,0.28,0.09c0.135,0,0.25-0.06,0.348-0.179c0.537-0.672,0.937-1.102,1.199-1.289
			c0.321-0.217,0.725-0.325,1.21-0.325c0.455,0,0.857,0.119,1.205,0.359c0.347,0.239,0.521,0.515,0.521,0.829
			c0,0.351-0.093,0.635-0.28,0.851s-0.5,0.426-0.942,0.627c-0.582,0.261-1.117,0.667-1.601,1.215
			c-0.486,0.549-0.729,1.134-0.729,1.754v0.504c0,0.142,0.039,0.282,0.118,0.42s0.174,0.207,0.286,0.207h2.689
			c0.119,0,0.224-0.058,0.314-0.174c0.09-0.116,0.135-0.237,0.135-0.364c0-0.186,0.103-0.436,0.308-0.751
			c0.205-0.314,0.461-0.556,0.768-0.728c0.291-0.165,0.519-0.297,0.683-0.398c0.165-0.101,0.379-0.263,0.645-0.487
			c0.265-0.224,0.47-0.446,0.616-0.667c0.146-0.22,0.277-0.506,0.392-0.857c0.116-0.351,0.174-0.729,0.174-1.131
			C31.828,132.025,31.675,131.433,31.368,130.87L31.368,130.87z"/>
	</g>
	<g>
		<path style="fill:#FFFFFF;" d="M86.615,141.196v1.529c0,1.57-1.367,3.018-3.018,3.018c-1.529,0-2.414-0.845-3.138-2.012
			c-1.57-2.656-2.698-3.863-2.253-4.305c0.442-0.444,1.529,0.523,2.373,1.407v-4.547c0-0.322,0.281-0.603,0.604-0.603
			c0.322,0,0.603,0.281,0.603,0.603v4.227h0.403v-1.409c0-0.322,0.283-0.603,0.603-0.603c0.322,0,0.605,0.281,0.605,0.603v1.006
			h0.401v-0.603c0-0.322,0.283-0.606,0.605-0.606c0.32,0,0.603,0.283,0.603,0.606v1.006h0.403v-0.203
			c0-0.322,0.281-0.603,0.603-0.603s0.603,0.281,0.603,0.603C86.615,140.31,86.615,141.196,86.615,141.196z"/>
		<path d="M86.008,139.303c-0.241,0-0.442,0.08-0.603,0.203c0-0.564-0.444-1.006-1.006-1.006c-0.242,0-0.483,0.08-0.686,0.239
			c-0.159-0.401-0.523-0.642-0.926-0.642c-0.24,0-0.442,0.08-0.603,0.2v-2.012c0-0.564-0.442-1.006-1.006-1.006
			c-0.562,0-1.006,0.442-1.006,1.006v3.582c-0.804-0.725-1.69-1.287-2.254-0.725c-0.804,0.805,0.886,2.376,2.173,4.749
			c0.926,1.651,2.215,2.254,3.501,2.254c1.892,0,3.421-1.529,3.421-3.421v-2.415C87.014,139.745,86.572,139.303,86.008,139.303
			L86.008,139.303z M86.611,141.196v1.529c0,1.57-1.367,3.018-3.018,3.018c-1.529,0-2.414-0.845-3.138-2.012
			c-1.57-2.656-2.698-3.863-2.253-4.305c0.442-0.444,1.529,0.523,2.373,1.407v-4.547c0-0.322,0.281-0.603,0.604-0.603
			c0.322,0,0.603,0.281,0.603,0.603v4.227h0.403v-1.409c0-0.322,0.283-0.603,0.603-0.603c0.322,0,0.605,0.281,0.605,0.603v1.006
			h0.401v-0.603c0-0.322,0.283-0.606,0.605-0.606c0.32,0,0.603,0.283,0.603,0.606v1.006h0.403v-0.203
			c0-0.322,0.281-0.603,0.603-0.603s0.603,0.281,0.603,0.603C86.611,140.31,86.611,141.196,86.611,141.196z"/>
	</g>
	<g>
		<path style="fill:#3DA849;" d="M140.541,264.232H6.24V23.546h134.3L140.541,264.232L140.541,264.232z M7.433,263.039h131.915
			v-238.3H7.433V263.039z"/>
	</g>
</g>
</svg>
