<?xml version="1.0" encoding="utf-8"?>
<!-- Generator: Adobe Illustrator 21.0.2, SVG Export Plug-In . SVG Version: 6.00 Build 0)  -->
<svg version="1.1" id="Layer_1" xmlns="http://www.w3.org/2000/svg" xmlns:xlink="http://www.w3.org/1999/xlink" x="0px" y="0px"
	 width="28.621px" height="30px" viewBox="0 0 28.621 30" style="enable-background:new 0 0 28.621 30;" xml:space="preserve">
<style type="text/css">
	.st0{fill-rule:evenodd;clip-rule:evenodd;fill:#0EAB69;}
	.st1{fill-rule:evenodd;clip-rule:evenodd;fill:#FFE13F;}
	.st2{fill-rule:evenodd;clip-rule:evenodd;fill:#5C84C3;}
	.st3{fill-rule:evenodd;clip-rule:evenodd;fill:#FFFFFF;}
	.st4{fill-rule:evenodd;clip-rule:evenodd;fill:#D2D2D2;}
	.st5{fill:#F0F0F0;}
	.st6{fill-rule:evenodd;clip-rule:evenodd;fill:#E14E3C;}
	.st7{fill-rule:evenodd;clip-rule:evenodd;fill:#883129;}
</style>
<g>
	<path class="st0" d="M0.488,26.898V6.295c0-1.197,0.972-2.17,2.17-2.17h20.602L0.488,26.898z"/>
	<path class="st1" d="M0.488,27.33v-0.432L23.259,4.126h0.432c1.198,0,2.17,0.972,2.17,2.17v0.433L3.09,29.5H2.657
		C1.459,29.5,0.488,28.528,0.488,27.33z"/>
	<polygon class="st2" points="3.09,29.5 13.175,19.415 23.259,29.5 	"/>
	<path class="st3" d="M23.259,29.5L13.02,19.261l2.603-2.602l10.239,10.239v0.432c0,1.197-0.972,2.17-2.17,2.17H23.259z"/>
	<polygon class="st4" points="25.862,26.898 15.777,16.813 25.862,6.728 	"/>
	<path class="st5" d="M10.219,9.606H8.885H6.82v1.178h2.011c-0.284,0.838-1.077,1.442-2.011,1.442c-1.173,0-2.124-0.951-2.124-2.124
		S5.647,7.979,6.82,7.979c0.531,0,1.016,0.195,1.389,0.518l0.94-0.919c-0.612-0.565-1.43-0.91-2.328-0.91
		c-1.897,0-3.435,1.538-3.435,3.435c0,1.897,1.538,3.435,3.435,3.435c1.664,0,3.051-1.183,3.367-2.754
		c0.044-0.22,0.068-0.448,0.068-0.682C10.255,9.934,10.242,9.768,10.219,9.606z"/>
	<g>
		<path class="st6" d="M21.314,22.212h-0.011c-0.226,0-0.345-0.171-0.37-0.357c-0.552-4.001-1.601-5.505-2.5-6.994
			c-1.492-2.472-3.949-5.208-3.949-7.925c0-3.422,2.8-6.436,6.814-6.436h0.021c4.014,0,6.815,3.014,6.815,6.436
			c0,2.717-2.457,5.453-3.95,7.925c-0.898,1.489-1.948,2.993-2.5,6.994C21.659,22.04,21.541,22.212,21.314,22.212z"/>
		
			<ellipse transform="matrix(0.707 -0.7072 0.7072 0.707 1.2798 17.1252)" class="st7" cx="21.309" cy="7.018" rx="2.35" ry="2.35"/>
	</g>
</g>
</svg>
