<?xml version="1.0" encoding="iso-8859-1"?>
<!-- Generator: Adobe Illustrator 21.0.2, SVG Export Plug-In . SVG Version: 6.00 Build 0)  -->
<svg version="1.1" id="Layer_1" xmlns="http://www.w3.org/2000/svg" xmlns:xlink="http://www.w3.org/1999/xlink" x="0px" y="0px"
	 width="96px" height="96px" viewBox="159 349 96 96" style="enable-background:new 159 349 96 96;" xml:space="preserve">
<path style="fill:#FFFFFF;" d="M176.101,397.477h3.035c0-9.336,7.573-16.938,16.938-16.938c2.428,0,4.74,0.52,6.821,1.445
	c3.411-7.862,11.215-13.354,20.32-13.354c12.226,0,22.141,9.914,22.141,22.141c0,2.833-0.549,5.55-1.532,8.035
	c4.711,2.255,8.006,7.053,8.006,12.602c0,7.718-6.243,13.961-13.961,13.961h-61.74c-7.718,0-13.961-6.243-13.961-13.961
	C162.112,403.749,168.384,397.477,176.101,397.477z"/>
</svg>
