<?xml version="1.0" encoding="iso-8859-1"?>
<!-- Generator: Adobe Illustrator 21.0.2, SVG Export Plug-In . SVG Version: 6.00 Build 0)  -->
<svg version="1.1" id="Layer_1" xmlns="http://www.w3.org/2000/svg" xmlns:xlink="http://www.w3.org/1999/xlink" x="0px" y="0px"
	 width="48px" height="48px" viewBox="0 0 48 48" style="enable-background:new 0 0 48 48;" xml:space="preserve">
<path style="fill:#FFFFFF;" d="M24,46.652L24,46.652c0.446,0,0.741-0.297,1.037-0.592c3.394-5.455,13.721-23.166,13.721-29.954
	c0-8.113-6.637-14.758-14.758-14.758c-8.115,0-14.758,6.645-14.758,14.758c0,6.788,10.332,24.5,13.726,29.954
	C23.264,46.355,23.703,46.652,24,46.652L24,46.652z M16.772,15.962c0-3.841,3.097-7.091,7.082-7.091
	c3.835,0,7.084,3.106,7.084,7.091c0,3.833-3.097,7.084-7.084,7.084C19.87,23.045,16.772,19.939,16.772,15.962L16.772,15.962z"/>
</svg>
