<?xml version="1.0" encoding="iso-8859-1"?>
<!-- Generator: Adobe Illustrator 21.0.2, SVG Export Plug-In . SVG Version: 6.00 Build 0)  -->
<svg version="1.1" id="Layer_1" xmlns="http://www.w3.org/2000/svg" xmlns:xlink="http://www.w3.org/1999/xlink" x="0px" y="0px"
	 width="96px" height="96px" viewBox="159 349 96 96" style="enable-background:new 159 349 96 96;" xml:space="preserve">
<g>
	<path style="fill:#FFFFFF;" d="M191.592,388.168c4.255,4.258,9.39,6.383,15.406,6.383s11.152-2.125,15.406-6.383
		c4.257-4.255,6.383-9.39,6.383-15.405s-2.126-11.152-6.383-15.405c-4.255-4.258-9.39-6.384-15.406-6.384
		s-11.151,2.129-15.406,6.384c-4.255,4.254-6.383,9.39-6.383,15.405S187.338,383.913,191.592,388.168L191.592,388.168z
		 M191.592,388.168"/>
	<path style="fill:#FFFFFF;" d="M245.958,413.499c-0.398-2.443-0.901-4.71-1.506-6.797c-0.605-2.087-1.418-4.121-2.439-6.106
		c-1.024-1.982-2.193-3.671-3.52-5.071c-1.322-1.4-2.942-2.515-4.853-3.351c-1.908-0.833-4.02-1.254-6.326-1.254
		c-0.377,0-1.19,0.451-2.441,1.348c-1.248,0.897-2.626,1.903-4.142,3.007c-1.514,1.107-3.534,2.109-6.071,3.006
		c-2.537,0.897-5.088,1.348-7.662,1.348c-2.571,0-5.124-0.451-7.659-1.348c-2.537-0.897-4.56-1.899-6.073-3.006
		c-1.513-1.104-2.894-2.11-4.142-3.007c-1.248-0.897-2.061-1.348-2.439-1.348c-2.309,0-4.418,0.421-6.329,1.254
		c-1.908,0.837-3.527,1.952-4.85,3.351c-1.326,1.396-2.496,3.089-3.52,5.071c-1.02,1.985-1.833,4.019-2.438,6.106
		c-0.606,2.087-1.109,4.354-1.504,6.797c-0.398,2.44-0.663,4.715-0.796,6.824c-0.132,2.109-0.197,4.271-0.197,6.486
		c0,5.007,1.377,8.963,4.138,11.865c2.765,2.901,6.435,4.354,11.012,4.354h49.594c4.577,0,8.246-1.453,11.008-4.354
		c2.762-2.902,4.142-6.858,4.142-11.865c0-2.215-0.068-4.377-0.198-6.486C246.618,418.214,246.352,415.939,245.958,413.499
		L245.958,413.499z M245.958,413.499"/>
</g>
</svg>
