<?xml version="1.0" encoding="iso-8859-1"?>
<!-- Generator: Adobe Illustrator 21.0.2, SVG Export Plug-In . SVG Version: 6.00 Build 0)  -->
<svg version="1.1" id="Layer_1" xmlns="http://www.w3.org/2000/svg" xmlns:xlink="http://www.w3.org/1999/xlink" x="0px" y="0px"
	 width="96px" height="96px" viewBox="0 0 96 96" style="enable-background:new 0 0 96 96;" xml:space="preserve">
<g>
	<path style="fill:#FFFFFF;" d="M91.15,83.318L73.641,65.809c0.141-0.56,0.141-1.191,0.141-1.821c0-5.393-4.413-9.804-9.805-9.804
		c-5.392,0-9.805,4.412-9.805,9.804s4.413,9.805,9.805,9.805c0.63,0,1.261-0.07,1.822-0.14l17.438,17.509
		c2.171,2.172,5.673,2.172,7.844,0C93.321,88.992,93.321,85.49,91.15,83.318L91.15,83.318z M91.15,83.318L73.641,65.809
		c0.141-0.56,0.141-1.191,0.141-1.821c0-5.393-4.413-9.804-9.805-9.804c-5.392,0-9.805,4.412-9.805,9.804s4.413,9.805,9.805,9.805
		c0.63,0,1.261-0.07,1.822-0.14l17.438,17.509c2.171,2.172,5.673,2.172,7.844,0C93.321,88.992,93.321,85.49,91.15,83.318
		L91.15,83.318z"/>
	<path style="fill:#FFFFFF;" d="M92.061,89.972c1.191-2.101,0.91-4.832-0.911-6.654L73.712,65.809c0.14-0.56,0.14-1.191,0.14-1.821
		c0-5.393-4.412-9.804-9.805-9.804c-2.171,0-4.132,0.7-5.813,1.891c-1.191,1.681-1.89,3.712-1.89,5.882
		c0,5.393,4.412,9.805,9.804,9.805c0.63,0,1.261-0.07,1.821-0.14l17.438,17.509C87.228,90.883,89.959,91.162,92.061,89.972
		L92.061,89.972z"/>
	<path style="fill:#FFFFFF;" d="M39.535,3.129c-20.1,0-36.418,16.318-36.418,36.418s16.318,36.418,36.418,36.418
		s36.418-16.318,36.418-36.418S59.634,3.129,39.535,3.129L39.535,3.129z M39.535,68.262c-15.828,0-28.714-12.887-28.714-28.715
		s12.886-28.714,28.714-28.714s28.714,12.886,28.714,28.714S55.362,68.262,39.535,68.262L39.535,68.262z M39.535,3.129
		c-20.1,0-36.418,16.318-36.418,36.418s16.318,36.418,36.418,36.418s36.418-16.318,36.418-36.418S59.634,3.129,39.535,3.129
		L39.535,3.129z M39.535,68.262c-15.828,0-28.714-12.887-28.714-28.715s12.886-28.714,28.714-28.714s28.714,12.886,28.714,28.714
		S55.362,68.262,39.535,68.262L39.535,68.262z"/>
</g>
</svg>
