<?xml version="1.0" encoding="utf-8"?>
<!-- Generator: Adobe Illustrator 21.0.2, SVG Export Plug-In . SVG Version: 6.00 Build 0)  -->
<svg version="1.1" id="Layer_1" xmlns="http://www.w3.org/2000/svg" xmlns:xlink="http://www.w3.org/1999/xlink" x="0px" y="0px"
	 width="37.455px" height="30px" viewBox="0 0 37.455 30" style="enable-background:new 0 0 37.455 30;" xml:space="preserve">
<style type="text/css">
	.st0{fill:#2AA9E0;}
</style>
<path class="st0" d="M36.57,3.933c-1.313,0.582-2.724,0.976-4.205,1.153c1.511-0.906,2.672-2.341,3.219-4.05
	c-1.415,0.839-2.981,1.448-4.649,1.777C29.599,1.389,27.697,0.5,25.591,0.5c-4.043,0-7.321,3.278-7.321,7.321
	c0,0.574,0.065,1.133,0.19,1.668C12.375,9.184,6.98,6.269,3.37,1.84c-0.63,1.081-0.991,2.339-0.991,3.681
	c0,2.54,1.292,4.781,3.257,6.094c-1.2-0.038-2.329-0.367-3.316-0.916c-0.001,0.031-0.001,0.061-0.001,0.092
	c0,3.547,2.524,6.506,5.873,7.179c-0.614,0.167-1.261,0.257-1.929,0.257c-0.472,0-0.93-0.046-1.377-0.131
	c0.932,2.908,3.635,5.025,6.839,5.084c-2.506,1.964-5.662,3.134-9.092,3.134c-0.591,0-1.174-0.035-1.746-0.102
	c3.24,2.077,7.088,3.289,11.223,3.289c13.466,0,20.83-11.156,20.83-20.83c0-0.317-0.007-0.633-0.021-0.947
	C34.347,6.69,35.588,5.401,36.57,3.933z"/>
</svg>
